<?xml version="1.0" encoding="UTF-8"?>
<svg version="1.1" xmlns="http://www.w3.org/2000/svg" width="600" height="159">
<path d="M0 0 C198 0 396 0 600 0 C600 52.47 600 104.94 600 159 C402 159 204 159 0 159 C0 106.53 0 54.06 0 0 Z " fill="#FEFEFE" transform="translate(0,0)"/>
<path d="M0 0 C5.5813464 3.37755297 9.49526429 8.24936604 11.5 14.4375 C12.57070369 24.51880096 10.76430231 32.43311371 4.5 40.4375 C-0.01653424 44.94325492 -4.0009519 48.07301582 -10.5 48.75 C-13.92885276 48.39282784 -15.75009392 47.48028737 -18.5 45.4375 C-19.70272819 43.03204362 -19.60071472 41.48753047 -19.5625 38.8125 C-19.55347656 37.99523438 -19.54445312 37.17796875 -19.53515625 36.3359375 C-19.52355469 35.70945313 -19.51195312 35.08296875 -19.5 34.4375 C-18.61248047 34.54191406 -18.61248047 34.54191406 -17.70703125 34.6484375 C-15.19452308 34.82058325 -12.98899438 34.84258801 -10.5 34.4375 C-6.08719692 30.40025463 -3.7953375 26.21229888 -3.1640625 20.28125 C-3.15117188 19.1778125 -3.13828125 18.074375 -3.125 16.9375 C-3.09664063 15.8340625 -3.06828125 14.730625 -3.0390625 13.59375 C-3.5958674 9.78105204 -4.83898117 8.16776467 -7.5 5.4375 C-10.60048928 3.88725536 -13.07894218 4.14757985 -16.5 4.4375 C-21.82458617 7.28553446 -23.70673768 11.91677791 -25.5 17.4375 C-26.67569604 23.64976359 -27.40021032 29.92034248 -28.13085938 36.19848633 C-29.94263189 51.44700405 -33.26396262 66.20146262 -44.5 77.4375 C-42.99373047 77.80101563 -42.99373047 77.80101563 -41.45703125 78.171875 C-40.0753436 78.50969262 -38.6938472 78.84829298 -37.3125 79.1875 C-36.22134888 79.45385254 -36.22134888 79.45385254 -35.1081543 79.72558594 C-30.59230558 80.84924087 -26.21736005 82.17602841 -21.8125 83.6875 C-13.28640101 86.33607778 -5.16948814 87.08622752 3.0625 83.1875 C7.28274764 80.88166486 10.83233601 78.53720966 12.3359375 73.80859375 C12.60277344 72.35646484 12.60277344 72.35646484 12.875 70.875 C15.72824585 58.4505485 22.46550404 49.73173064 32.4296875 41.92578125 C38.4450008 38.24688792 45.70639352 38.60680478 52.5 39.4375 C56.36159776 40.86643058 58.20964678 43.00197016 60.5 46.4375 C61.46986688 51.68783705 61.1708916 56.22191317 58.125 60.6875 C50.9504507 68.97994419 40.59747739 72.14927249 30.5 75.4375 C31.78783564 79.50434938 32.83286833 82.60358541 35.5 85.9375 C40.52162538 88.44831269 46.14035893 88.55298004 51.48828125 86.77734375 C53.3170396 85.80621 54.86598237 84.7092412 56.5 83.4375 C57.19222656 82.95152344 57.88445312 82.46554688 58.59765625 81.96484375 C63.57713725 78.14212059 65.34777693 75.01527437 66.81640625 68.9765625 C70.03648404 57.01627356 79.68391709 48.03909428 89.921875 41.8125 C95.13370735 39.03285608 99.5396197 37.66615667 105.5 38.4375 C109.09911415 39.8635641 112.08555311 41.35237342 114.5 44.4375 C114.5 45.0975 114.5 45.7575 114.5 46.4375 C115.45261719 45.86 116.40523437 45.2825 117.38671875 44.6875 C118.65330755 43.93692886 119.92025363 43.18696039 121.1875 42.4375 C121.81333984 42.0559375 122.43917969 41.674375 123.08398438 41.28125 C126.6956518 39.1634136 129.28431589 37.92162279 133.5 38.4375 C132.0516337 43.86252114 130.55250752 49.27184654 129 54.66796875 C128.7333252 55.59520752 128.46665039 56.52244629 128.19189453 57.4777832 C127.65296753 59.34792109 127.11231442 61.21756254 126.56982422 63.08666992 C126.19108154 64.40115112 126.19108154 64.40115112 125.8046875 65.7421875 C125.57765137 66.52577637 125.35061523 67.30936523 125.11669922 68.11669922 C123.92936321 72.58495579 123.38173838 76.62178561 123.4375 81.25 C123.44652344 82.22582031 123.45554688 83.20164062 123.46484375 84.20703125 C123.47644531 84.94308594 123.48804688 85.67914063 123.5 86.4375 C130.27389174 86.22826782 133.24460426 83.61577612 137.9375 78.9375 C138.55431641 78.3496875 139.17113281 77.761875 139.80664062 77.15625 C141.74358063 75.28582302 143.6189406 73.36397733 145.5 71.4375 C146.20769531 70.77105469 146.91539062 70.10460937 147.64453125 69.41796875 C153.69282456 63.35859798 155.20428802 57.74046079 156.625 49.4375 C157.100372 47.02581303 157.58344827 44.61563187 158.07421875 42.20703125 C158.30931152 41.04510254 158.5444043 39.88317383 158.78662109 38.68603516 C160.32626063 31.6749319 162.72700307 25.04461591 165.5 18.4375 C165.76925293 17.77878906 166.03850586 17.12007812 166.31591797 16.44140625 C171.33672555 4.41257128 171.33672555 4.41257128 176.4375 1.6875 C178.45703125 0.96875 178.45703125 0.96875 180.5 0.4375 C181.18449219 0.2209375 181.86898438 0.004375 182.57421875 -0.21875 C186.56015365 -1.37277306 190.38783604 -2.2167079 194.5 -1.5625 C197.33517671 1.19507151 198.41294668 2.8831752 199.03125 6.8203125 C198.91172658 21.13324169 195.08610533 30.61306799 185.5 41.4375 C184.56929688 42.15808594 183.63859375 42.87867188 182.6796875 43.62109375 C174.43192946 50.10468556 172.64792731 57.40337484 170.625 67.3125 C170.48736237 67.96636688 170.34972473 68.62023376 170.20791626 69.29391479 C168.33290358 76.86721971 168.33290358 76.86721971 169.77294922 84.21533203 C172.29873221 87.46521566 173.9776728 88.36419092 178.0625 88.9375 C184.96607278 88.75917893 190.47138736 84.43688191 195.2109375 79.765625 C198.15002878 76.07047348 198.47642402 72.39999232 198.9375 67.8125 C200.30517557 57.28520004 203.11759091 47.48013825 206.5 37.4375 C206.86182373 36.36024658 206.86182373 36.36024658 207.23095703 35.26123047 C208.8299217 30.58522039 210.58475337 25.99292306 212.5 21.4375 C212.95246094 20.36048828 212.95246094 20.36048828 213.4140625 19.26171875 C214.36586297 17.05245832 215.36093778 14.86880305 216.375 12.6875 C216.66616699 12.01944336 216.95733398 11.35138672 217.25732422 10.66308594 C219.83015787 5.37032175 223.12635852 3.5559415 228.5 1.4375 C229.26570313 1.09203125 230.03140625 0.7465625 230.8203125 0.390625 C234.80394118 -1.16143812 238.15816162 -2.18276263 242.5 -1.5625 C246.94848847 5.11023271 245.19853225 16.48891049 243.84765625 24.125 C240.19460641 36.91851362 232.70161764 51.24427797 222.59375 60.109375 C219.28890864 63.00890563 218.36547746 65.35487908 217.99609375 69.6875 C217.93306449 71.3117788 217.89318876 72.93710052 217.875 74.5625 C217.8639624 75.35156738 217.8529248 76.14063477 217.84155273 76.95361328 C217.93929654 80.91286676 218.23944977 83.01669503 220.3671875 86.453125 C222.37065752 88.65006108 222.37065752 88.65006108 225.25 89.0625 C229.81774848 88.18408683 232.79440255 86.17641985 236.5 83.4375 C237.2940625 82.8909375 238.088125 82.344375 238.90625 81.78125 C245.04913228 77.07436618 246.46293131 73.18586785 247.78125 65.68359375 C250.04691791 55.45114791 258.08880269 47.09134497 266.625 41.4375 C272.48645189 38.41486976 279.08292334 38.50748889 285.5 39.4375 C289.53052369 41.46979223 292.2540316 43.46386359 294.5 47.4375 C294.84661354 51.90221247 293.92193294 55.52025447 292.0625 59.5625 C285.17195945 67.29335037 276.30040374 71.45476843 266.5 74.4375 C265.51 74.4375 264.52 74.4375 263.5 74.4375 C265.73017911 81.23643787 265.73017911 81.23643787 270.5 86.4375 C272.91121258 87.64310629 274.55946347 87.63858115 277.25 87.6875 C278.09046875 87.71328125 278.9309375 87.7390625 279.796875 87.765625 C286.35483836 86.96957164 293.14979043 82.40392918 297.33105469 77.36181641 C301.71113287 70.15133682 302.87143709 60.61377818 304.5 52.4375 C303.18 52.4375 301.86 52.4375 300.5 52.4375 C300.64037521 50.62456911 300.78744889 48.8121557 300.9375 47 C301.01871094 45.99066406 301.09992188 44.98132812 301.18359375 43.94140625 C301.5 41.4375 301.5 41.4375 302.5 40.4375 C304.83297433 40.39657063 307.16705225 40.39508277 309.5 40.4375 C309.62890625 39.43332031 309.7578125 38.42914063 309.890625 37.39453125 C310.44162709 33.56930521 311.26956696 29.86591458 312.25 26.125 C312.55421875 24.91199219 312.8584375 23.69898437 313.171875 22.44921875 C314.5 19.4375 314.5 19.4375 316.8984375 18.08984375 C317.75695312 17.87457031 318.61546875 17.65929687 319.5 17.4375 C320.48613281 17.12425781 320.48613281 17.12425781 321.4921875 16.8046875 C322.11351562 16.64226563 322.73484375 16.47984375 323.375 16.3125 C323.99117188 16.14492188 324.60734375 15.97734375 325.2421875 15.8046875 C328.29050279 15.30894072 331.41163619 15.4375 334.5 15.4375 C332.52 23.0275 330.54 30.6175 328.5 38.4375 C331.47 38.4375 334.44 38.4375 337.5 38.4375 C337.19230293 40.25082154 336.87870936 42.06314345 336.5625 43.875 C336.38847656 44.88433594 336.21445312 45.89367187 336.03515625 46.93359375 C335.5 49.4375 335.5 49.4375 334.5 50.4375 C332.64712498 50.50976502 330.79166122 50.5213122 328.9375 50.5 C327.92558594 50.49097656 326.91367187 50.48195312 325.87109375 50.47265625 C325.08863281 50.46105469 324.30617188 50.44945312 323.5 50.4375 C323.40203125 50.99695313 323.3040625 51.55640625 323.203125 52.1328125 C322.22242061 57.39141709 320.93086347 62.44249539 319.375 67.5625 C317.85131401 72.78737846 316.88695032 77.02222782 317.5 82.4375 C318.16 83.4275 318.82 84.4175 319.5 85.4375 C323.55164228 86.06620311 326.03065322 86.27057918 329.62890625 84.23046875 C331.6624831 82.70625081 333.58700159 81.10984402 335.5 79.4375 C336.985 78.261875 336.985 78.261875 338.5 77.0625 C339.16 76.52625 339.82 75.99 340.5 75.4375 C341.44726626 82.0683638 341.44726626 82.0683638 339.0703125 85.50390625 C331.61342197 93.15545456 322.88904877 100.21809028 311.9375 100.8125 C308.86456533 100.71453732 307.49297763 100.43391079 304.6875 99 C301.69239041 95.49144306 300.1773877 91.69674917 298.5 87.4375 C298.17 86.7775 297.84 86.1175 297.5 85.4375 C296.89414062 86.02917969 296.28828125 86.62085937 295.6640625 87.23046875 C285.97954623 96.36371255 277.42611397 100.88194819 264.02734375 100.78515625 C257.78738766 100.17014397 254.38511798 97.42451625 250.1875 93 C248.37001031 90.24010824 246.89292994 87.43229938 245.5 84.4375 C244.98953125 84.93378906 244.4790625 85.43007812 243.953125 85.94140625 C235.01225677 94.29572816 225.72841861 100.85069571 213.2265625 100.71875 C208.20731756 100.20100554 205.61927123 97.55677123 202.1875 94.125 C200.14867518 90.8779827 199.79720795 88.22690134 199.5 84.4375 C198.84 84.4375 198.18 84.4375 197.5 84.4375 C197.26539063 85.015 197.03078125 85.5925 196.7890625 86.1875 C193.18485498 92.47848041 184.4767472 98.38243563 177.5 100.4375 C172.92786127 100.90906588 168.87441025 100.89563675 164.5 99.4375 C162.025 115.7725 162.025 115.7725 159.5 132.4375 C153.56 133.4275 147.62 134.4175 141.5 135.4375 C141.96365039 128.19742079 142.79713328 121.10248793 143.9453125 113.9453125 C144.07983826 113.10474304 144.21436401 112.26417358 144.35296631 111.39813232 C144.91727725 107.8954357 145.48736791 104.39376738 146.06689453 100.89355469 C146.49307206 98.30791896 146.90742769 95.72059926 147.3203125 93.1328125 C147.45357941 92.34834747 147.58684631 91.56388245 147.72415161 90.75564575 C148.41484754 86.37652061 148.52475403 82.8251915 147.5 78.4375 C146.84 78.4375 146.18 78.4375 145.5 78.4375 C145.231875 79.03046875 144.96375 79.6234375 144.6875 80.234375 C140.29518909 88.38326762 129.10192554 97.4455259 120.5 100.4375 C117.51998237 100.95885497 115.61398349 100.83292647 112.5 100.4375 C106.34639102 95.75540621 105.49564616 90.76751568 104.5 83.4375 C103.943125 84.17355469 103.38625 84.90960938 102.8125 85.66796875 C97.49101511 92.47263778 92.80153228 97.67032257 84.5 100.4375 C79.87546271 100.81656043 77.4500672 100.89426308 73.25 98.875 C68.96932829 95.08076826 67.03335566 90.50421132 64.5 85.4375 C63.89414063 86.02917969 63.28828125 86.62085937 62.6640625 87.23046875 C52.8568146 96.47945793 44.26406505 100.90231224 30.765625 100.78125 C24.55441774 100.12743871 20.67120946 96.93030978 16.5625 92.4375 C14.5459631 89.50435542 14.04879224 87.85734218 13.5 84.4375 C12.90574219 84.94539063 12.31148438 85.45328125 11.69921875 85.9765625 C0.40363243 95.35734492 -10.03075248 101.0971647 -24.8671875 100.890625 C-31.17370696 100.10400537 -36.79546333 97.66886215 -42.61816406 95.21582031 C-45.37971948 94.07365131 -48.18628293 93.06791561 -51 92.0625 C-51.8765625 91.74539062 -52.753125 91.42828125 -53.65625 91.1015625 C-54.2646875 90.88242188 -54.873125 90.66328125 -55.5 90.4375 C-55.83 91.4275 -56.16 92.4175 -56.5 93.4375 C-58.49609375 95.0078125 -58.49609375 95.0078125 -60.9375 96.5625 C-61.74058594 97.08070312 -62.54367188 97.59890625 -63.37109375 98.1328125 C-67.29405973 100.5369788 -69.84979135 100.76383043 -74.5 100.4375 C-76.4375 99.4375 -76.4375 99.4375 -77.5 97.4375 C-78.10785375 94.12193409 -78.3689849 92.56814757 -77.5 89.4375 C-73.82941008 84.25056951 -69.23725508 82.19138557 -63.25 80.5625 C-59.09479389 79.3637684 -59.09479389 79.3637684 -55.9140625 76.6171875 C-54.7773013 74.23255311 -54.0931955 72.01189092 -53.5 69.4375 C-53.29246094 68.5609375 -53.08492187 67.684375 -52.87109375 66.78125 C-51.85505279 61.60867782 -51.42583823 56.49715763 -51.21484375 51.24267578 C-50.54777121 35.05529054 -46.02013569 20.57059932 -34.7890625 8.515625 C-25.36821144 -0.03709303 -12.52712518 -5.69193649 0 0 Z " fill="#929292" transform="translate(77.5,18.5625)"/>
<path d="M0 0 C14.85 0 29.7 0 45 0 C45 52.47 45 104.94 45 159 C-6.15 159 -57.3 159 -110 159 C-104.42368518 153.42368518 -104.42368518 153.42368518 -100.6953125 152.015625 C-96.02174126 150.08746291 -92.04631272 147.58184572 -87.875 144.75 C-63.45071063 128.622284 -63.45071063 128.622284 -53 128 C-50.1875 129.625 -50.1875 129.625 -48 132 C-42.72751002 135.43324929 -38.10496317 135.7641937 -32 135 C-23.92194258 133.1358329 -14.16620614 130.0027719 -9.51171875 122.6484375 C-7.50865346 119.51709474 -6.21889916 117.95682758 -3 116 C4.87216999 114.54509632 13.02477506 114.80399553 21 115 C20.67 113.68 20.34 112.36 20 111 C19.278125 111.495 18.55625 111.99 17.8125 112.5 C12.70812854 115.10753434 6.56351121 114.3995892 1 114 C0.34 113.67 -0.32 113.34 -1 113 C0.08174388 109.48433238 1.36058584 106.19322033 2.9375 102.87890625 C5.05526402 98.12453566 6.31033463 93.48452094 7.25 88.375 C7.41910889 87.45565674 7.58821777 86.53631348 7.76245117 85.58911133 C11.7783485 60.81461296 9.21527498 35.68399432 1.62597656 11.91210938 C0.28960767 7.58579416 0 4.67777108 0 0 Z " fill="#FEFEFD" transform="translate(555,0)"/>
<path d="M0 0 C3.53049309 9.9744999 6.61818379 19.72496989 8.45703125 30.15625 C8.85410468 32.93448588 8.85410468 32.93448588 10 35 C13.51640645 59.00769581 13.97117047 91.04324429 0 112 C2.37531394 112.0543965 4.74935883 112.09385864 7.125 112.125 C7.79015625 112.14175781 8.4553125 112.15851563 9.140625 112.17578125 C13.49516056 112.21847278 16.95600114 111.59996217 21 110 C21.33 111.32 21.66 112.64 22 114 C19.54164966 115.22917517 18.04962989 115.05147901 15.30859375 114.96484375 C4.59732673 114.47700523 4.59732673 114.47700523 -5.10546875 118.078125 C-7.28143221 120.65311752 -7.28143221 120.65311752 -9.14453125 123.421875 C-14.03165331 130.21240249 -23.00900303 133.47909262 -31 135 C-38.64250083 136.05982292 -43.76325354 134.46986332 -50 130 C-51.77234501 128.53137572 -53.48288473 127.01560627 -55.18359375 125.46484375 C-57.2026261 123.83659186 -59.25323993 122.73833359 -61.5625 121.5625 C-69.62120774 117.19793673 -73.05616533 111.06544032 -76.0859375 102.5234375 C-80.70202226 84.72981163 -73.48471339 67.34755753 -65 52 C-52.83631266 32.05721029 -32.60433125 19.76063437 -13.35205078 7.52050781 C-10.13519862 5.44094011 -6.97897349 3.27484614 -3.82788086 1.09716797 C-2 0 -2 0 0 0 Z " fill="#FED427" transform="translate(554,1)"/>
<path d="M0 0 C5.5813464 3.37755297 9.49526429 8.24936604 11.5 14.4375 C12.57070369 24.51880096 10.76430231 32.43311371 4.5 40.4375 C-0.01653424 44.94325492 -4.0009519 48.07301582 -10.5 48.75 C-13.92885276 48.39282784 -15.75009392 47.48028737 -18.5 45.4375 C-19.70272819 43.03204362 -19.60071472 41.48753047 -19.5625 38.8125 C-19.55347656 37.99523438 -19.54445312 37.17796875 -19.53515625 36.3359375 C-19.52355469 35.70945313 -19.51195312 35.08296875 -19.5 34.4375 C-18.61248047 34.54191406 -18.61248047 34.54191406 -17.70703125 34.6484375 C-15.19452308 34.82058325 -12.98899438 34.84258801 -10.5 34.4375 C-6.08719692 30.40025463 -3.7953375 26.21229888 -3.1640625 20.28125 C-3.15117188 19.1778125 -3.13828125 18.074375 -3.125 16.9375 C-3.09664063 15.8340625 -3.06828125 14.730625 -3.0390625 13.59375 C-3.5958674 9.78105204 -4.83898117 8.16776467 -7.5 5.4375 C-10.60048928 3.88725536 -13.07894218 4.14757985 -16.5 4.4375 C-21.82458617 7.28553446 -23.70673768 11.91677791 -25.5 17.4375 C-26.67569604 23.64976359 -27.40021032 29.92034248 -28.13085938 36.19848633 C-29.94263189 51.44700405 -33.26396262 66.20146262 -44.5 77.4375 C-42.99373047 77.80101563 -42.99373047 77.80101563 -41.45703125 78.171875 C-40.0753436 78.50969262 -38.6938472 78.84829298 -37.3125 79.1875 C-36.22134888 79.45385254 -36.22134888 79.45385254 -35.1081543 79.72558594 C-30.59230558 80.84924087 -26.21736005 82.17602841 -21.8125 83.6875 C-13.28640101 86.33607778 -5.16948814 87.08622752 3.0625 83.1875 C7.28274764 80.88166486 10.83233601 78.53720966 12.3359375 73.80859375 C12.60277344 72.35646484 12.60277344 72.35646484 12.875 70.875 C15.72824585 58.4505485 22.46550404 49.73173064 32.4296875 41.92578125 C38.4450008 38.24688792 45.70639352 38.60680478 52.5 39.4375 C56.36159776 40.86643058 58.20964678 43.00197016 60.5 46.4375 C61.46986688 51.68783705 61.1708916 56.22191317 58.125 60.6875 C50.9504507 68.97994419 40.59747739 72.14927249 30.5 75.4375 C31.78783564 79.50434938 32.83286833 82.60358541 35.5 85.9375 C40.52162538 88.44831269 46.14035893 88.55298004 51.48828125 86.77734375 C53.31854676 85.80540965 54.86669047 84.71328786 56.5 83.4375 C57.20382813 82.92832031 57.90765625 82.41914062 58.6328125 81.89453125 C63.79934367 77.84834107 65.58773503 74.93738794 66.5 68.4375 C67.16 68.7675 67.82 69.0975 68.5 69.4375 C68.83 68.7775 69.16 68.1175 69.5 67.4375 C70.16 67.4375 70.82 67.4375 71.5 67.4375 C71.7475 66.756875 71.995 66.07625 72.25 65.375 C76.61967804 55.10625661 82.79822802 49.68104356 92.6484375 44.51171875 C97.15880586 42.81260738 100.94037729 42.97977675 105.5 44.4375 C108.0625 46.0625 108.0625 46.0625 109.5 48.4375 C110.25 52.1875 110.25 52.1875 110.5 55.4375 C110.83 55.4375 111.16 55.4375 111.5 55.4375 C112.06638102 62.80045329 110.11010895 68.59502687 107.5 75.4375 C107.21125 76.23542969 106.9225 77.03335938 106.625 77.85546875 C102.93538682 87.16185914 96.62297464 95.08841009 87.5 99.4375 C82.27379424 101.17956859 78.15563018 101.23347605 73.25 98.875 C68.96932829 95.08076826 67.03335566 90.50421132 64.5 85.4375 C63.89414063 86.02917969 63.28828125 86.62085937 62.6640625 87.23046875 C52.8568146 96.47945793 44.26406505 100.90231224 30.765625 100.78125 C24.55441774 100.12743871 20.67120946 96.93030978 16.5625 92.4375 C14.5459631 89.50435542 14.04879224 87.85734218 13.5 84.4375 C12.90574219 84.94539063 12.31148438 85.45328125 11.69921875 85.9765625 C0.40363243 95.35734492 -10.03075248 101.0971647 -24.8671875 100.890625 C-31.17370696 100.10400537 -36.79546333 97.66886215 -42.61816406 95.21582031 C-45.37971948 94.07365131 -48.18628293 93.06791561 -51 92.0625 C-51.8765625 91.74539062 -52.753125 91.42828125 -53.65625 91.1015625 C-54.2646875 90.88242188 -54.873125 90.66328125 -55.5 90.4375 C-55.83 91.4275 -56.16 92.4175 -56.5 93.4375 C-58.49609375 95.0078125 -58.49609375 95.0078125 -60.9375 96.5625 C-61.74058594 97.08070312 -62.54367188 97.59890625 -63.37109375 98.1328125 C-67.29405973 100.5369788 -69.84979135 100.76383043 -74.5 100.4375 C-76.4375 99.4375 -76.4375 99.4375 -77.5 97.4375 C-78.10785375 94.12193409 -78.3689849 92.56814757 -77.5 89.4375 C-73.82941008 84.25056951 -69.23725508 82.19138557 -63.25 80.5625 C-59.09479389 79.3637684 -59.09479389 79.3637684 -55.9140625 76.6171875 C-54.7773013 74.23255311 -54.0931955 72.01189092 -53.5 69.4375 C-53.29246094 68.5609375 -53.08492187 67.684375 -52.87109375 66.78125 C-51.85505279 61.60867782 -51.42583823 56.49715763 -51.21484375 51.24267578 C-50.54777121 35.05529054 -46.02013569 20.57059932 -34.7890625 8.515625 C-25.36821144 -0.03709303 -12.52712518 -5.69193649 0 0 Z " fill="#929292" transform="translate(77.5,18.5625)"/>
<path d="M0 0 C6.48198206 2.04985244 12.44435687 4.93744596 18.5625 7.875 C19.68591797 8.40480469 20.80933594 8.93460938 21.96679688 9.48046875 C23.05154297 9.99996094 24.13628906 10.51945312 25.25390625 11.0546875 C26.23689697 11.52374512 27.2198877 11.99280273 28.23266602 12.47607422 C31.15769971 14.08684266 33.57972896 15.69460226 36 18 C36.24146824 20.99118783 36.23216379 23.48425357 36 26.4375 C35.61579252 36.07478524 37.43493451 44.44554295 43.1875 52.4375 C46.45976989 55.41890145 49.89311985 57.43802763 53.79296875 59.5078125 C56.20051132 61.13556695 56.97156366 62.32261824 58 65 C57.2471875 65.25652344 56.494375 65.51304687 55.71875 65.77734375 C42.43920506 70.56378167 30.78300805 77.64754945 19.18139648 85.60229492 C14.63925056 88.68112536 10.09258127 90.92844152 5 93 C4.34 93.66 3.68 94.32 3 95 C-2.6421314 95.72526453 -8.04271513 94.93514462 -13.5078125 93.5546875 C-16.37165809 92.91727986 -19.21104802 92.59240683 -22.125 92.25 C-28.69888506 91.36067572 -34.97267582 89.78375667 -41.375 88.0625 C-44.36490326 87.2720548 -47.3554993 86.4843284 -50.34667969 85.69873047 C-51.93208223 85.28122752 -53.51646353 84.85976898 -55.09863281 84.43017578 C-69.66907656 80.57374686 -85.06051368 81.6664324 -100 82 C-101.04043457 82.02078613 -102.08086914 82.04157227 -103.15283203 82.06298828 C-120.66741644 82.46793243 -137.0207484 84.29561216 -153.41625977 90.75048828 C-160.70860617 93.56366577 -160.70860617 93.56366577 -165 92 C-164.89453125 90.17578125 -164.89453125 90.17578125 -164 88 C-161.32421875 86.54296875 -161.32421875 86.54296875 -157.6875 85.1875 C-157.03104492 84.94104736 -156.37458984 84.69459473 -155.69824219 84.44067383 C-154.25338511 83.90311873 -152.80543854 83.37381614 -151.35498047 82.8515625 C-148.87494617 81.95478045 -146.40871772 81.0249172 -143.94140625 80.09375 C-127.10864575 73.85376027 -127.10864575 73.85376027 -118 74 C-118 74.99 -118 75.98 -118 77 C-117.35901367 76.94465088 -116.71802734 76.88930176 -116.05761719 76.83227539 C-101.64704281 75.60760596 -87.27497075 74.71665542 -72.81542969 74.34204102 C-71.69040039 74.31037842 -70.56537109 74.27871582 -69.40625 74.24609375 C-68.40916016 74.22216553 -67.41207031 74.1982373 -66.38476562 74.17358398 C-63.98474574 74.15116502 -63.98474574 74.15116502 -62 73 C-59.6670134 72.95977609 -57.33293334 72.95679753 -55 73 C-55.9977758 75.99332739 -56.7522025 76.94766315 -59 79 C-57.78699219 79.25652344 -56.57398438 79.51304687 -55.32421875 79.77734375 C-47.92338243 81.42149118 -40.63733062 83.50922359 -33.33007812 85.52148438 C-32.21697266 85.82505859 -31.10386719 86.12863281 -29.95703125 86.44140625 C-28.95647705 86.71670166 -27.95592285 86.99199707 -26.92504883 87.27563477 C-17.09851202 89.70909898 -5.01443073 91.40865844 4 86 C4.70125 85.46375 5.4025 84.9275 6.125 84.375 C8 83 8 83 10.22265625 82.60546875 C13.58744052 81.87193631 16.25619882 80.51602918 19.3125 78.9375 C20.38113281 78.38964844 21.44976562 77.84179688 22.55078125 77.27734375 C23.35902344 76.85582031 24.16726563 76.43429688 25 76 C24.35933594 75.731875 23.71867188 75.46375 23.05859375 75.1875 C12.66739616 70.47971451 7.26541194 63.45966826 3 53 C2.11243566 50.32621244 1.30818555 47.65434265 0.578125 44.93359375 C0.17032446 43.0120192 0.17032446 43.0120192 -1 42 C-2.41877812 35.07716773 -2.18385708 28.03812844 -2.1875 21 C-2.19974609 19.75476563 -2.21199219 18.50953125 -2.22460938 17.2265625 C-2.23438584 11.11301202 -2.16521411 5.75108255 0 0 Z " fill="#0A71E2" transform="translate(442,64)"/>
<path d="M0 0 C2.27521255 1.42862183 4.03860599 2.58057987 5.6875 4.6875 C5.6875 5.3475 5.6875 6.0075 5.6875 6.6875 C6.64011719 6.11 7.59273437 5.5325 8.57421875 4.9375 C9.84080755 4.18692886 11.10775363 3.43696039 12.375 2.6875 C13.00083984 2.3059375 13.62667969 1.924375 14.27148438 1.53125 C17.8831518 -0.5865864 20.47181589 -1.82837721 24.6875 -1.3125 C23.2391337 4.11252114 21.74000752 9.52184654 20.1875 14.91796875 C19.9208252 15.84520752 19.65415039 16.77244629 19.37939453 17.7277832 C18.84046753 19.59792109 18.29981442 21.46756254 17.75732422 23.33666992 C17.5048291 24.21299072 17.25233398 25.08931152 16.9921875 25.9921875 C16.6516333 27.1675708 16.6516333 27.1675708 16.30419922 28.36669922 C15.11686321 32.83495579 14.56923838 36.87178561 14.625 41.5 C14.63402344 42.47582031 14.64304688 43.45164063 14.65234375 44.45703125 C14.66394531 45.19308594 14.67554688 45.92914063 14.6875 46.6875 C16.3375 46.6875 17.9875 46.6875 19.6875 46.6875 C18.6975 47.3475 17.7075 48.0075 16.6875 48.6875 C19.34684047 49.27880428 19.34684047 49.27880428 22.6875 48.6875 C25.60907938 46.6201836 28.10853201 44.16055554 30.6875 41.6875 C32.34401812 40.34157903 34.00556068 39.0015151 35.6875 37.6875 C36.0175 38.6775 36.3475 39.6675 36.6875 40.6875 C17.76554144 60.43215241 17.76554144 60.43215241 7.625 61.1875 C3.6875 60.6875 3.6875 60.6875 0.8125 58.5 C-3.43675915 52.87598053 -4.71406104 46.66573846 -4.3125 39.6875 C-3.28244971 36.41186115 -2.01572994 33.41410806 -0.5390625 30.31640625 C1.64716959 25.63062855 1.78700095 21.86154943 1.6875 16.6875 C1.3575 16.6875 1.0275 16.6875 0.6875 16.6875 C0.45963542 14.70182292 0.23177083 12.71614583 0.00390625 10.73046875 C-0.28420735 8.49353607 -0.28420735 8.49353607 -1.3125 5.6875 C-10.07399231 3.83888726 -15.18562493 4.9210139 -22.71875 9.73046875 C-25.35056187 11.61927384 -25.35056187 11.61927384 -27.53125 13.92578125 C-29.3125 15.6875 -29.3125 15.6875 -31.3125 15.6875 C-31.56 16.368125 -31.8075 17.04875 -32.0625 17.75 C-33.55447908 21.25615083 -35.38085511 24.40370368 -37.3125 27.6875 C-37.9725 27.6875 -38.6325 27.6875 -39.3125 27.6875 C-39.6425 28.6775 -39.9725 29.6675 -40.3125 30.6875 C-41.14807039 28.32886461 -41.44653589 27.08344511 -40.6328125 24.6796875 C-33.13538519 11.39993062 -17.00268052 -6.73691115 0 0 Z " fill="#929292" transform="translate(186.3125,58.3125)"/>
<path d="M0 0 C2.24950949 1.285434 2.68794392 2.68956221 3.75 5 C2.62078125 5.38478516 2.62078125 5.38478516 1.46875 5.77734375 C-11.81079494 10.56378167 -23.46699195 17.64754945 -35.06860352 25.60229492 C-39.61074944 28.68112536 -44.15741873 30.92844152 -49.25 33 C-50.24 33.99 -50.24 33.99 -51.25 35 C-56.8921314 35.72526453 -62.29271513 34.93514462 -67.7578125 33.5546875 C-70.62165809 32.91727986 -73.46104802 32.59240683 -76.375 32.25 C-82.94888506 31.36067572 -89.22267582 29.78375667 -95.625 28.0625 C-98.61490326 27.2720548 -101.6054993 26.4843284 -104.59667969 25.69873047 C-106.18208223 25.28122752 -107.76646353 24.85976898 -109.34863281 24.43017578 C-123.91907656 20.57374686 -139.31051368 21.6664324 -154.25 22 C-155.29043457 22.02078613 -156.33086914 22.04157227 -157.40283203 22.06298828 C-174.91741644 22.46793243 -191.2707484 24.29561216 -207.66625977 30.75048828 C-214.95860617 33.56366577 -214.95860617 33.56366577 -219.25 32 C-219.14453125 30.17578125 -219.14453125 30.17578125 -218.25 28 C-215.57421875 26.54296875 -215.57421875 26.54296875 -211.9375 25.1875 C-211.28104492 24.94104736 -210.62458984 24.69459473 -209.94824219 24.44067383 C-208.50338511 23.90311873 -207.05543854 23.37381614 -205.60498047 22.8515625 C-203.12494617 21.95478045 -200.65871772 21.0249172 -198.19140625 20.09375 C-181.35864575 13.85376027 -181.35864575 13.85376027 -172.25 14 C-172.25 14.99 -172.25 15.98 -172.25 17 C-171.60901367 16.94465088 -170.96802734 16.88930176 -170.30761719 16.83227539 C-155.89704281 15.60760596 -141.52497075 14.71665542 -127.06542969 14.34204102 C-125.94040039 14.31037842 -124.81537109 14.27871582 -123.65625 14.24609375 C-122.65916016 14.22216553 -121.66207031 14.1982373 -120.63476562 14.17358398 C-118.23474574 14.15116502 -118.23474574 14.15116502 -116.25 13 C-113.9170134 12.95977609 -111.58293334 12.95679753 -109.25 13 C-110.2477758 15.99332739 -111.0022025 16.94766315 -113.25 19 C-112.03699219 19.25652344 -110.82398438 19.51304687 -109.57421875 19.77734375 C-102.17338243 21.42149118 -94.88733062 23.50922359 -87.58007812 25.52148438 C-86.46697266 25.82505859 -85.35386719 26.12863281 -84.20703125 26.44140625 C-83.20647705 26.71670166 -82.20592285 26.99199707 -81.17504883 27.27563477 C-71.34851202 29.70909898 -59.26443073 31.40865844 -50.25 26 C-49.54875 25.46375 -48.8475 24.9275 -48.125 24.375 C-46.25 23 -46.25 23 -43.95581055 22.57104492 C-40.98430781 21.94392727 -38.76701657 20.89972443 -36.08203125 19.48828125 C-35.10556641 18.97716797 -34.12910156 18.46605469 -33.12304688 17.93945312 C-32.11306641 17.40255859 -31.10308594 16.86566406 -30.0625 16.3125 C-29.07185547 15.79494141 -28.08121094 15.27738281 -27.06054688 14.74414062 C-19.44265718 10.73288461 -11.84594665 6.63562564 -4.875 1.5625 C-2.25 0 -2.25 0 0 0 Z " fill="#464645" transform="translate(496.25,124)"/>
<path d="M0 0 C5.5813464 3.37755297 9.49526429 8.24936604 11.5 14.4375 C12.57070369 24.51880096 10.76430231 32.43311371 4.5 40.4375 C-0.01653424 44.94325492 -4.0009519 48.07301582 -10.5 48.75 C-13.92885276 48.39282784 -15.75009392 47.48028737 -18.5 45.4375 C-19.70272819 43.03204362 -19.60071472 41.48753047 -19.5625 38.8125 C-19.55347656 37.99523438 -19.54445313 37.17796875 -19.53515625 36.3359375 C-19.52355469 35.70945313 -19.51195313 35.08296875 -19.5 34.4375 C-18.90832031 34.50710937 -18.31664063 34.57671875 -17.70703125 34.6484375 C-15.19452308 34.82058325 -12.98899438 34.84258801 -10.5 34.4375 C-6.08719692 30.40025463 -3.7953375 26.21229888 -3.1640625 20.28125 C-3.15117188 19.1778125 -3.13828125 18.074375 -3.125 16.9375 C-3.08246094 15.28234375 -3.08246094 15.28234375 -3.0390625 13.59375 C-3.5958674 9.78105204 -4.83898117 8.16776467 -7.5 5.4375 C-11.46769422 3.45365289 -16.35529486 4.11119435 -20.5 5.4375 C-20.5 4.7775 -20.5 4.1175 -20.5 3.4375 C-24.49067442 4.76772481 -26.67547274 6.34817331 -29.5 9.4375 C-34.68731988 14.88418588 -34.68731988 14.88418588 -38.5 16.4375 C-38.5 17.0975 -38.5 17.7575 -38.5 18.4375 C-39.49 18.1075 -40.48 17.7775 -41.5 17.4375 C-32.40537806 4.02836458 -16.80401863 -7.57318441 0 0 Z " fill="#929292" transform="translate(77.5,18.5625)"/>
<path d="M0 0 C3.1875 1.0625 3.1875 1.0625 5.1875 4.0625 C6.95421584 16.03918996 1.92188078 28.33863276 -4.8125 38.0625 C-7.87247935 41.30207182 -10.47920552 43.01121944 -15.0625 43.1875 C-17.8125 42.0625 -17.8125 42.0625 -19.6875 40 C-22.82231079 31.81466071 -19.84709047 23.88854911 -16.8125 16.0625 C-13.36795452 8.82597651 -8.80364871 0.14432211 0 0 Z " fill="#FCFCFC" transform="translate(181.8125,62.9375)"/>
<path d="M0 0 C2.65762092 1.69537886 4.08795176 3.57724014 5.8359375 6.19921875 C6.80580438 11.4495558 6.5068291 15.98363192 3.4609375 20.44921875 C-1.75608197 26.53984289 -10.23511281 31.6197467 -18.1640625 33.19921875 C-20.96221485 33.14152489 -23.40026441 32.74210766 -26.1640625 32.19921875 C-26.1640625 31.53921875 -26.1640625 30.87921875 -26.1640625 30.19921875 C-25.34421875 29.82410156 -24.524375 29.44898437 -23.6796875 29.0625 C-22.60203125 28.55074219 -21.524375 28.03898437 -20.4140625 27.51171875 C-19.34671875 27.01285156 -18.279375 26.51398438 -17.1796875 26 C-12.95538425 23.47745622 -9.81433922 19.87500278 -8.1640625 15.19921875 C-7.77670053 9.8609707 -7.77670053 9.8609707 -10.1640625 5.19921875 C-17.51019831 4.46460517 -21.95250461 6.36315539 -27.7890625 10.82421875 C-31.18462026 13.8084204 -32.70288045 16.94438664 -34.2421875 21.1484375 C-35.23536557 23.35783786 -36.36269836 24.60531508 -38.1640625 26.19921875 C-39.1385817 23.6337676 -39.29495367 22.52872305 -38.265625 19.9375 C-29.96839652 6.30633893 -17.43246736 -6.45064225 0 0 Z " fill="#929292" transform="translate(132.1640625,58.80078125)"/>
<path d="M0 0 C1.83498047 -0.03867187 1.83498047 -0.03867187 3.70703125 -0.078125 C8.5423584 0.37773076 11.01512226 2.20103044 14.5625 5.375 C16.92123083 9.54813917 16.4040639 12.71406971 15.1875 17.25 C11.78166174 24.65399622 4.00885404 29.37855506 -3.4375 32.1875 C-4.55125 32.538125 -5.665 32.88875 -6.8125 33.25 C-6.8125 32.26 -6.8125 31.27 -6.8125 30.25 C-7.6478125 30.9925 -7.6478125 30.9925 -8.5 31.75 C-11.19412983 33.49754367 -12.66625007 33.51218749 -15.8125 33.25 C-16.1425 32.59 -16.4725 31.93 -16.8125 31.25 C-16.00425781 30.88648437 -15.19601562 30.52296875 -14.36328125 30.1484375 C-7.37420216 26.86045095 -2.35343368 24.33186736 1.1875 17.25 C1.38488723 15.14044938 1.38488723 15.14044938 1.375 12.8125 C1.39626953 11.63880859 1.39626953 11.63880859 1.41796875 10.44140625 C1.32836064 7.95794013 1.32836064 7.95794013 -0.8125 5.25 C-0.4825 4.92 -0.1525 4.59 0.1875 4.25 C-5.86823224 4.77204588 -11.07245252 5.30674325 -15.4453125 10.00390625 C-16.49343923 11.25710126 -17.51874656 12.52988465 -18.515625 13.82421875 C-18.94359375 14.29472656 -19.3715625 14.76523438 -19.8125 15.25 C-20.4725 15.25 -21.1325 15.25 -21.8125 15.25 C-21.8125 15.91 -21.8125 16.57 -21.8125 17.25 C-22.4725 17.25 -23.1325 17.25 -23.8125 17.25 C-23.8125 17.91 -23.8125 18.57 -23.8125 19.25 C-24.4725 19.25 -25.1325 19.25 -25.8125 19.25 C-24.73985717 13.21638407 -20.15218007 9.02479809 -15.41796875 5.43359375 C-9.91389544 1.74346383 -6.73396757 0.0846153 0 0 Z " fill="#929292" transform="translate(355.8125,57.75)"/>
<path d="M0 0 C2.69258495 4.03887742 2.38421889 7.12727269 2.375 11.875 C2.37258301 13.15068848 2.37258301 13.15068848 2.37011719 14.45214844 C2.17904274 24.37677988 -0.22947272 33.80957419 -6 42 C-7.485 42.495 -7.485 42.495 -9 43 C-10.77325404 45.32506081 -12.43534245 47.63952741 -14.0625 50.0625 C-15.65686377 52.42988862 -17.28214415 54.71640088 -19 57 C-19.66 57 -20.32 57 -21 57 C-20.36259662 53.41564075 -18.84945005 51.05272469 -16.8125 48.0625 C-9.59760601 36.95126696 -2.54880803 23.64678604 -4 10 C-4.33 9.01 -4.66 8.02 -5 7 C-8.16227399 7 -11.11640488 7.17014788 -14.25 7.5 C-15.14203125 7.5928125 -16.0340625 7.685625 -16.953125 7.78125 C-17.62859375 7.8534375 -18.3040625 7.925625 -19 8 C-19.33 8.99 -19.66 9.98 -20 11 C-20.66 11 -21.32 11 -22 11 C-22.226875 12.258125 -22.45375 13.51625 -22.6875 14.8125 C-23.97070232 20.60056153 -26.39685781 25.70046873 -29 31 C-29.60134766 32.22589844 -29.60134766 32.22589844 -30.21484375 33.4765625 C-31.13175989 35.32344697 -32.06401897 37.1627039 -33 39 C-33.33 39 -33.66 39 -34 39 C-33.56178144 31.7840011 -31.78777479 26.27777496 -28.75 19.75 C-28.36714844 18.87859375 -27.98429687 18.0071875 -27.58984375 17.109375 C-24.7848008 10.95516706 -22.10397545 6.57335426 -15.87890625 3.41796875 C-14.78449219 3.01191406 -13.69007813 2.60585938 -12.5625 2.1875 C-10.92474609 1.55908203 -10.92474609 1.55908203 -9.25390625 0.91796875 C-5.93721416 -0.01771269 -3.42142771 -0.40860216 0 0 Z " fill="#898989" transform="translate(320,17)"/>
<path d="M0 0 C2.85243916 2.74908991 3.91228896 4.44148707 4.53125 8.3828125 C4.44295708 18.95588928 2.92032865 28.61172284 -4 37 C-5.63064764 38.05771739 -7.30280873 39.05273046 -9 40 C-10.85759121 41.5560342 -12.65826391 43.16085691 -14.44921875 44.79296875 C-16 46 -16 46 -18 46 C-18 45.34 -18 44.68 -18 44 C-17.34 44 -16.68 44 -16 44 C-15.90074219 43.41089844 -15.80148437 42.82179687 -15.69921875 42.21484375 C-14.86744771 39.58012766 -13.7649678 38.49772747 -11.8125 36.5625 C-6.22520325 30.37491517 -1.80894503 22.32835561 -1.3125 13.875 C-1.62938841 9.98470769 -1.62938841 9.98470769 -4.0625 7.875 C-8.79728333 6.46463901 -12.37254742 7.18627371 -16.75 9.375 C-18.99535572 10.90578747 -18.99535572 10.90578747 -20.6875 12.6875 C-21.3371875 13.3371875 -21.3371875 13.3371875 -22 14 C-22.66 14 -23.32 14 -24 14 C-24.66 15.32 -25.32 16.64 -26 18 C-25.56455895 12.55698689 -24.76910115 9.03832266 -21 5 C-14.66836273 1.9785196 -7.08537481 -0.88567185 0 0 Z " fill="#8A8A8A" transform="translate(272,17)"/>
<path d="M0 0 C1.32 0.66 2.64 1.32 4 2 C4.77259112 13.39571908 0.80588174 22.92701382 -4.375 32.875 C-4.73779053 33.57625 -5.10058105 34.2775 -5.47436523 35 C-8.10869139 39.86942431 -11.24836999 43.93613241 -15 48 C-16.35596564 45.28806871 -15.71166796 44.04336077 -14.99609375 41.1171875 C-14.63136963 39.62421143 -14.63136963 39.62421143 -14.25927734 38.10107422 C-13.85249756 36.50416748 -13.85249756 36.50416748 -13.4375 34.875 C-13.16373535 33.7936377 -12.8899707 32.71227539 -12.60791016 31.59814453 C-9.722403 20.49661357 -6.69451235 9.45276637 0 0 Z " fill="#F9F9F9" transform="translate(313,25)"/>
<path d="M0 0 C2.27521255 1.42862183 4.03860599 2.58057987 5.6875 4.6875 C5.6875 5.3475 5.6875 6.0075 5.6875 6.6875 C6.64011719 6.11 7.59273437 5.5325 8.57421875 4.9375 C9.84080755 4.18692886 11.10775363 3.43696039 12.375 2.6875 C13.00083984 2.3059375 13.62667969 1.924375 14.27148438 1.53125 C17.8831518 -0.5865864 20.47181589 -1.82837721 24.6875 -1.3125 C24.5625 0.48828125 24.5625 0.48828125 23.6875 2.6875 C21 4.35546875 21 4.35546875 17.6875 5.875 C13.93719577 7.39756855 13.93719577 7.39756855 10.6875 9.6875 C7.3125 9.5 7.3125 9.5 3.6875 8.6875 C1.9375 6.6875 1.9375 6.6875 0.6875 4.6875 C-4.72390595 2.88369802 -9.2643732 3.23684451 -14.41796875 5.703125 C-15.35576172 6.19039063 -15.35576172 6.19039063 -16.3125 6.6875 C-17.07175781 7.07421875 -17.83101562 7.4609375 -18.61328125 7.859375 C-22.79287562 10.07572291 -26.07120951 12.18690628 -29.3125 15.6875 C-29.9725 15.6875 -30.6325 15.6875 -31.3125 15.6875 C-31.56 16.368125 -31.8075 17.04875 -32.0625 17.75 C-33.55447908 21.25615083 -35.38085511 24.40370368 -37.3125 27.6875 C-37.9725 27.6875 -38.6325 27.6875 -39.3125 27.6875 C-39.6425 28.6775 -39.9725 29.6675 -40.3125 30.6875 C-41.14807039 28.32886461 -41.44653589 27.08344511 -40.6328125 24.6796875 C-33.13538519 11.39993062 -17.00268052 -6.73691115 0 0 Z " fill="#787878" transform="translate(186.3125,58.3125)"/>
<path d="M0 0 C2.375 0.8125 2.375 0.8125 4.375 2.8125 C5.15417749 7.34260169 4.80400371 10.95449258 2.75 15.0625 C-1.06551944 19.48046988 -4.8877214 23.10682258 -10.625 24.8125 C-11.615 24.8125 -12.605 24.8125 -13.625 24.8125 C-14.15652125 16.48533373 -11.81136416 9.41332711 -6.625 2.8125 C-4.21378485 0.40128485 -3.43002167 -0.24500155 0 0 Z " fill="#FAFAFA" transform="translate(353.625,63.1875)"/>
<path d="M0 0 C2.53762859 3.80644288 2.51942559 5.47357697 2 10 C-0.47145372 15.81453621 -4.34848026 20.14945276 -10 23 C-13.4375 23.8125 -13.4375 23.8125 -16 24 C-16.43973519 15.9381881 -15.22649598 9.32351842 -9.9375 3 C-6.61993395 -0.64679016 -4.87395693 -1.46218708 0 0 Z " fill="#FBFBFB" transform="translate(123,64)"/>
<path d="M0 0 C3.875 1.875 3.875 1.875 5 3 C6.4706588 12.31417242 1.94524553 20.3352843 -3 28 C-5.45253896 30.97867486 -8.00121273 33.57544859 -11 36 C-12.52980765 31.41057704 -10.99506248 27.5515539 -9.875 22.9375 C-9.53311646 21.51473755 -9.53311646 21.51473755 -9.18432617 20.06323242 C-7.36305755 12.80377442 -5.42700796 5.42700796 0 0 Z " fill="#FAFAFA" transform="translate(266,24)"/>
<path d="M0 0 C1.27396229 3.82188686 0.47488806 4.70109238 -1.25 8.25 C-3.27208916 12.4607033 -5.18491882 16.69667543 -7 21 C-7.38655762 21.91313965 -7.77311523 22.8262793 -8.17138672 23.76708984 C-9.55295194 27.03172282 -10.93276955 30.29709121 -12.3125 33.5625 C-21.47166249 55.22663087 -21.47166249 55.22663087 -25.48828125 64.3984375 C-27.01755621 68.04182643 -28.37441245 71.71117045 -29.6875 75.4375 C-30.12449219 76.67371094 -30.56148438 77.90992187 -31.01171875 79.18359375 C-31.33785156 80.11300781 -31.66398437 81.04242188 -32 82 C-32.99 82 -33.98 82 -35 82 C-35.66 81.01 -36.32 80.02 -37 79 C-36.03663197 76.21644353 -34.98809843 73.71903751 -33.72265625 71.07421875 C-33.3556813 70.27996994 -32.98870636 69.48572113 -32.61061096 68.66740417 C-31.42143953 66.10460775 -30.21205628 63.55204281 -29 61 C-28.22063338 59.33961729 -27.44181982 57.67897485 -26.66357422 56.01806641 C-24.27568937 50.9395598 -21.85829175 45.87538272 -19.4375 40.8125 C-17.81025082 37.40279505 -16.18432627 33.99245954 -14.55859375 30.58203125 C-14.16827972 29.76397003 -13.7779657 28.94590881 -13.37582397 28.10305786 C-10.37640524 21.80982172 -7.42214671 15.49661092 -4.49243164 9.1706543 C-3.04172983 6.08865455 -1.53627795 3.04011348 0 0 Z " fill="#F0C101" transform="translate(534,45)"/>
<path d="M0 0 C-1.39975974 4.89915908 -3.97588068 7.00163658 -8 10 C-8.7425 10.5775 -9.485 11.155 -10.25 11.75 C-17.8356894 15.19804064 -26.16212924 14.14101581 -34 12 C-35.35277179 11.37371676 -36.69445599 10.71956728 -38 10 C-38 9.34 -38 8.68 -38 8 C-39.28777344 7.73445313 -40.57554688 7.46890625 -41.90234375 7.1953125 C-43.5808238 6.83898713 -45.25920417 6.48219202 -46.9375 6.125 C-47.78763672 5.95097656 -48.63777344 5.77695313 -49.51367188 5.59765625 C-50.32255859 5.42363281 -51.13144531 5.24960938 -51.96484375 5.0703125 C-52.7137085 4.91320801 -53.46257324 4.75610352 -54.23413086 4.59423828 C-56 4 -56 4 -57 2 C-49.29255891 1.20084136 -43.35709744 2.99513863 -36.19921875 5.80859375 C-28.65019857 8.61988942 -19.7580344 9.62362439 -12.03515625 6.98828125 C-8.78260744 5.39782787 -5.91048556 3.9212733 -3.3515625 1.33203125 C-2 0 -2 0 0 0 Z " fill="#818181" transform="translate(90,96)"/>
<path d="M0 0 C4.49115836 2.69469502 8.15984127 6.75718253 10.5 11.4375 C10.54022391 13.7704866 10.54320247 16.10456666 10.5 18.4375 C9.84 18.4375 9.18 18.4375 8.5 18.4375 C8.35304688 17.49777344 8.35304688 17.49777344 8.203125 16.5390625 C8.05359375 15.72179687 7.9040625 14.90453125 7.75 14.0625 C7.61078125 13.25039063 7.4715625 12.43828125 7.328125 11.6015625 C6.68250739 9.26040908 6.68250739 9.26040908 4.421875 8.1484375 C3.78765625 7.91382813 3.1534375 7.67921875 2.5 7.4375 C2.5 6.7775 2.5 6.1175 2.5 5.4375 C-7.24951162 1.64602326 -15.70694134 1.36212776 -25.5 5.4375 C-27.69029376 7.3255815 -27.69029376 7.3255815 -29.5 9.4375 C-34.68731988 14.88418588 -34.68731988 14.88418588 -38.5 16.4375 C-38.5 17.0975 -38.5 17.7575 -38.5 18.4375 C-39.49 18.1075 -40.48 17.7775 -41.5 17.4375 C-32.40537806 4.02836458 -16.80401863 -7.57318441 0 0 Z " fill="#6E6E6E" transform="translate(77.5,18.5625)"/>
<path d="M0 0 C-0.33 0.99 -0.66 1.98 -1 3 C-1.78246094 3.12117188 -2.56492187 3.24234375 -3.37109375 3.3671875 C-4.88896484 3.61855469 -4.88896484 3.61855469 -6.4375 3.875 C-7.44683594 4.03742187 -8.45617187 4.19984375 -9.49609375 4.3671875 C-10.32238281 4.57601562 -11.14867187 4.78484375 -12 5 C-12.33 5.66 -12.66 6.32 -13 7 C-14.20462891 7.57621094 -14.20462891 7.57621094 -15.43359375 8.1640625 C-18.90587503 10.64803846 -19.28205854 13.39205736 -20.0625 17.375 C-21.10112003 22.46374118 -22.28569935 26.18511868 -26 30 C-28.25 30.8125 -28.25 30.8125 -30 31 C-30.495 33.475 -30.495 33.475 -31 36 C-32.485 36.495 -32.485 36.495 -34 37 C-33.85962479 35.18706911 -33.71255111 33.3746557 -33.5625 31.5625 C-33.48128906 30.55316406 -33.40007812 29.54382813 -33.31640625 28.50390625 C-33 26 -33 26 -32 25 C-29.66702567 24.95907063 -27.33294775 24.95758277 -25 25 C-24.80664062 23.49373047 -24.80664062 23.49373047 -24.609375 21.95703125 C-24.05837291 18.13180521 -23.23043304 14.42841458 -22.25 10.6875 C-21.79367187 8.86798828 -21.79367187 8.86798828 -21.328125 7.01171875 C-20 4 -20 4 -17.6015625 2.65234375 C-16.74304688 2.43707031 -15.88453125 2.22179688 -15 2 C-14.34257812 1.79117188 -13.68515625 1.58234375 -13.0078125 1.3671875 C-8.5372418 0.19853209 -4.61925676 -0.19246903 0 0 Z " fill="#858585" transform="translate(412,34)"/>
<path d="M0 0 C2.65762092 1.69537886 4.08795176 3.57724014 5.8359375 6.19921875 C6.09354029 8.89374396 5.92493803 11.4847025 5.8359375 14.19921875 C5.5059375 14.19921875 5.1759375 14.19921875 4.8359375 14.19921875 C4.8359375 12.54921875 4.8359375 10.89921875 4.8359375 9.19921875 C3.8459375 8.86921875 2.8559375 8.53921875 1.8359375 8.19921875 C1.16927083 6.53255208 0.50260417 4.86588542 -0.1640625 3.19921875 C-7.62296677 0.71291733 -13.30219518 2.5209528 -20.2578125 5.65625 C-27.33189774 9.41198074 -31.56170844 13.60630889 -34.27734375 21.18359375 C-35.24661849 23.38687907 -36.37461161 24.61527902 -38.1640625 26.19921875 C-39.1385817 23.6337676 -39.29495367 22.52872305 -38.265625 19.9375 C-29.96839652 6.30633893 -17.43246736 -6.45064225 0 0 Z " fill="#707070" transform="translate(132.1640625,58.80078125)"/>
<path d="M0 0 C0.495 2.475 0.495 2.475 1 5 C0.35933594 4.96519531 -0.28132813 4.93039063 -0.94140625 4.89453125 C-6.89716501 4.70813642 -10.67262263 5.39067231 -16 8 C-16.99 8 -17.98 8 -19 8 C-19.33 8.99 -19.66 9.98 -20 11 C-20.66 11 -21.32 11 -22 11 C-22.226875 12.258125 -22.45375 13.51625 -22.6875 14.8125 C-23.97070232 20.60056153 -26.39685781 25.70046873 -29 31 C-29.60134766 32.22589844 -29.60134766 32.22589844 -30.21484375 33.4765625 C-31.13175989 35.32344697 -32.06401897 37.1627039 -33 39 C-33.33 39 -33.66 39 -34 39 C-33.56178144 31.7840011 -31.78777479 26.27777496 -28.75 19.75 C-28.36714844 18.87859375 -27.98429687 18.0071875 -27.58984375 17.109375 C-24.7848008 10.95516706 -22.10397545 6.57335426 -15.87890625 3.41796875 C-14.78449219 3.01191406 -13.69007813 2.60585938 -12.5625 2.1875 C-10.92474609 1.55908203 -10.92474609 1.55908203 -9.25390625 0.91796875 C-5.99679779 -0.00090338 -3.36363977 -0.17756771 0 0 Z " fill="#808080" transform="translate(320,17)"/>
<path d="M0 0 C0.8125 1.6484375 0.8125 1.6484375 1 4 C-0.60565181 6.12262304 -2.10250532 7.8006735 -4 9.625 C-4.47050781 10.11484375 -4.94101563 10.6046875 -5.42578125 11.109375 C-10.21849623 15.83749814 -15.45612164 17.26757921 -22.0625 17.375 C-26.80617472 17.24543074 -29.47495589 16.35718486 -33 13 C-34.6852974 10.4541252 -36.12636759 7.9341999 -37 5 C-36.67 4.01 -36.34 3.02 -36 2 C-35.608125 2.556875 -35.21625 3.11375 -34.8125 3.6875 C-32.72975581 6.34479432 -30.41717307 8.64643674 -28 11 C-27.67 11.33 -27.34 11.66 -27 12 C-20.14075888 12.72389915 -14.52635861 12.44060603 -9 8 C-5.927637 5.40753911 -2.93736604 2.74420592 0 0 Z " fill="#6C6C6C" transform="translate(143,94)"/>
<path d="M0 0 C0.33 0 0.66 0 1 0 C1.49029078 5.58931491 1.24137746 9.07652319 -2.3125 13.5390625 C-4.86518922 15.74902955 -7.56956267 16.45393547 -10.7890625 17.3203125 C-13.94437468 18.29032013 -16.34051628 20.08269778 -19 22 C-20.3191582 22.69429379 -21.64649406 23.37530495 -23 24 C-23 25.98 -23 27.96 -23 30 C-23.66 29.67 -24.32 29.34 -25 29 C-25.93469867 22.34027195 -25.93469867 22.34027195 -23.640625 19.05078125 C-19.66367878 15.26282214 -16.1003552 13.59280144 -10.8125 12.1875 C-7.13678139 11.14194161 -5.45970498 10.60306412 -3.12109375 7.53515625 C-1.89910612 5.05288508 -0.86232867 2.62709433 0 0 Z " fill="#7E7E7E" transform="translate(25,87)"/>
<path d="M0 0 C0.66 0.66 1.32 1.32 2 2 C1.35933594 1.96519531 0.71867187 1.93039063 0.05859375 1.89453125 C-5.7742142 1.71198435 -9.73586136 2.22436326 -15 5 C-16.13308594 5.58007812 -16.13308594 5.58007812 -17.2890625 6.171875 C-21.47745544 8.38203674 -24.75581797 10.49628341 -28 14 C-28.66 14 -29.32 14 -30 14 C-30.2475 14.680625 -30.495 15.36125 -30.75 16.0625 C-32.24197908 19.56865083 -34.06835511 22.71620368 -36 26 C-36.66 26 -37.32 26 -38 26 C-38.33 26.99 -38.66 27.98 -39 29 C-39.83557039 26.64136461 -40.13403589 25.39594511 -39.3203125 22.9921875 C-34.03555601 13.63160574 -27.47847881 6.17007935 -18 1 C-18 1.66 -18 2.32 -18 3 C-17.071875 2.505 -16.14375 2.01 -15.1875 1.5 C-10.34067394 -0.59565635 -5.19419211 -0.66327163 0 0 Z " fill="#767676" transform="translate(185,60)"/>
<path d="M0 0 C0.33 0 0.66 0 1 0 C1.56635456 7.36260925 -0.42383057 13.14908788 -3 20 C-3.35771484 21.06347656 -3.35771484 21.06347656 -3.72265625 22.1484375 C-5.7713396 27.76698225 -9.2244907 30.46616592 -14.375 33.3125 C-18.07967676 34.28277249 -21.16706193 34.2513402 -25 34 C-25.66 33.34 -26.32 32.68 -27 32 C-26.625 29.875 -26.625 29.875 -26 28 C-25.46375 28.515625 -24.9275 29.03125 -24.375 29.5625 C-22.04385376 31.25350756 -22.04385376 31.25350756 -19.0625 31 C-14.14731687 29.39504224 -11.69823171 26.16704443 -9.0859375 21.80078125 C-8.23902344 20.07408203 -8.23902344 20.07408203 -7.375 18.3125 C-7.07577637 17.70253174 -6.77655273 17.09256348 -6.46826172 16.46411133 C-4.34062901 12.01218869 -2.73761919 7.56430735 -1.5078125 2.79296875 C-1 1 -1 1 0 0 Z " fill="#838383" transform="translate(188,74)"/>
<path d="M0 0 C0.66 1.32 1.32 2.64 2 4 C0.85286163 5.14713837 -0.29559953 6.29297305 -1.44921875 7.43359375 C-2.5351907 8.53050748 -3.59870565 9.64990138 -4.64453125 10.78515625 C-9.95054393 16.42653767 -14.7080685 19.06169165 -22.5625 19.625 C-25.82401956 19.56210568 -27.43681359 19.43371827 -30.0390625 17.4296875 C-31.5287442 15.6858421 -32.81439428 13.96100187 -34 12 C-33.67 11.34 -33.34 10.68 -33 10 C-31.824375 10.99 -31.824375 10.99 -30.625 12 C-26.41407389 14.80395791 -21.88783852 14.82705804 -17 14 C-12.51753105 12.13181504 -9.24641711 9.71559208 -5.6875 6.4375 C-4.82511719 5.65246094 -3.96273438 4.86742188 -3.07421875 4.05859375 C-0.95330235 2.17311485 -0.95330235 2.17311485 0 0 Z " fill="#727272" transform="translate(377,92)"/>
<path d="M0 0 C1.83498047 -0.03867187 1.83498047 -0.03867187 3.70703125 -0.078125 C7.42723143 0.27260094 9.27618646 0.94677968 12.1875 3.25 C12.6825 4.735 12.6825 4.735 13.1875 6.25 C12.07375 5.92 10.96 5.59 9.8125 5.25 C2.17127298 3.39023046 -4.62194608 3.39031693 -11.76953125 6.89453125 C-14.63559206 8.79610506 -16.59088693 11.10616006 -18.62109375 13.859375 C-19.21083984 14.54773438 -19.21083984 14.54773438 -19.8125 15.25 C-20.4725 15.25 -21.1325 15.25 -21.8125 15.25 C-21.8125 15.91 -21.8125 16.57 -21.8125 17.25 C-22.4725 17.25 -23.1325 17.25 -23.8125 17.25 C-23.8125 17.91 -23.8125 18.57 -23.8125 19.25 C-24.4725 19.25 -25.1325 19.25 -25.8125 19.25 C-24.73985717 13.21638407 -20.15218007 9.02479809 -15.41796875 5.43359375 C-9.91389544 1.74346383 -6.73396757 0.0846153 0 0 Z " fill="#6B6B6B" transform="translate(355.8125,57.75)"/>
<path d="M0 0 C0.66 0 1.32 0 2 0 C1.00489595 6.96572833 -2.60056553 10.86465141 -7.75 15.375 C-8.82669517 16.33722924 -9.90222002 17.30076965 -10.9765625 18.265625 C-11.49508789 18.73033203 -12.01361328 19.19503906 -12.54785156 19.67382812 C-15.02842968 21.93921151 -17.36749559 24.33734616 -19.6953125 26.7578125 C-22.56667308 29.49162288 -25.202955 29.08254446 -29 29 C-29.33 28.34 -29.66 27.68 -30 27 C-28.97648438 26.61972656 -27.95296875 26.23945312 -26.8984375 25.84765625 C-22.75374066 24.06495733 -19.84473204 21.54767034 -16.625 18.4375 C-16.06844727 17.91172363 -15.51189453 17.38594727 -14.93847656 16.84423828 C-6.48557038 9.16562752 -6.48557038 9.16562752 0 0 Z " fill="#6C6C6C" transform="translate(232,79)"/>
<path d="M0 0 C0.66 0 1.32 0 2 0 C1.69871559 3.32571637 1.27501558 4.72192869 -1.109375 7.1328125 C-1.98078125 7.79023437 -2.8521875 8.44765625 -3.75 9.125 C-4.61109375 9.78757812 -5.4721875 10.45015625 -6.359375 11.1328125 C-11.46275399 14.7414148 -14.6277134 16.56210158 -20.90625 16.36328125 C-23 16 -23 16 -25.5625 14.125 C-27 12 -27 12 -27 10 C-26.505 10.165 -26.01 10.33 -25.5 10.5 C-17.8228366 12.03543268 -13.77797121 10.87695988 -7.26953125 6.66796875 C-4.53207627 4.65610424 -2.32297388 2.46815975 0 0 Z " fill="#737373" transform="translate(275,96)"/>
<path d="M0 0 C0.33 0 0.66 0 1 0 C1.69654204 8.14180249 0.77953549 14.22794048 -4 21 C-8.28868557 24.81216495 -12.50920476 25.8639734 -18 27 C-18 24.36 -18 21.72 -18 19 C-17.40832031 19.06960937 -16.81664062 19.13921875 -16.20703125 19.2109375 C-11.85573257 19.50906889 -9.72095978 19.5607465 -6.1875 16.8125 C-2.76620692 11.90627069 -1.51509166 5.70487026 0 0 Z " fill="#808080" transform="translate(76,34)"/>
<path d="M0 0 C0.66 0.33 1.32 0.66 2 1 C-0.475 2.485 -0.475 2.485 -3 4 C-2.67 3.01 -2.34 2.02 -2 1 C-1.34 0.67 -0.68 0.34 0 0 Z M-5 4 C-4.34 4.33 -3.68 4.66 -3 5 C-4.78572252 6.83947337 -6.57802449 8.67157741 -8.375 10.5 C-8.88289063 11.02464844 -9.39078125 11.54929687 -9.9140625 12.08984375 C-11.23832604 13.43153181 -12.61605865 14.71995815 -14 16 C-14.66 16 -15.32 16 -16 16 C-16.433125 17.3303125 -16.433125 17.3303125 -16.875 18.6875 C-19.26189611 25.715583 -19.26189611 25.715583 -20.9921875 28.7265625 C-22.30961567 31.69843535 -22.67496695 34.53547823 -23.125 37.75 C-23.29257812 38.92046875 -23.46015625 40.0909375 -23.6328125 41.296875 C-23.75398438 42.18890625 -23.87515625 43.0809375 -24 44 C-26.68906181 39.96640728 -26.66939436 36.65924983 -26 32 C-24.15287928 26.12904009 -21.83190637 20.46531463 -19 15 C-17.68 15 -16.36 15 -15 15 C-15 14.34 -15 13.68 -15 13 C-11.91774326 9.65354983 -8.59852875 6.7760079 -5 4 Z " fill="#858585" transform="translate(54,22)"/>
<path d="M0 0 C1.9375 1.25 1.9375 1.25 3 3 C2.6875 5.1875 2.6875 5.1875 2 7 C1.34 6.34 0.68 5.68 0 5 C-6.9284495 3.85414104 -14.15428931 5.05802518 -20 9 C-22.16174227 11.82240957 -23.66539981 14.71266902 -25 18 C-25.33 18 -25.66 18 -26 18 C-25.56455895 12.55698689 -24.76910115 9.03832266 -21 5 C-14.49548726 1.89602279 -7.26436773 -0.61824406 0 0 Z " fill="#757575" transform="translate(272,17)"/>
<path d="M0 0 C0.33 0 0.66 0 1 0 C1.13277344 0.71027344 1.26554687 1.42054687 1.40234375 2.15234375 C1.57894531 3.07144531 1.75554687 3.99054688 1.9375 4.9375 C2.11152344 5.85402344 2.28554688 6.77054687 2.46484375 7.71484375 C2.77714988 9.95289844 2.77714988 9.95289844 4 11 C9.20073351 11.63868657 11.9577435 11.44242078 16.1875 8.25 C17.47098937 7.18169129 18.74276005 6.0990797 20 5 C20.99 4.21625 21.98 3.4325 23 2.625 C23.66 2.08875 24.32 1.5525 25 1 C25 3.64 25 6.28 25 9 C24.01 9.495 24.01 9.495 23 10 C23 9.34 23 8.68 23 8 C22.55269531 8.42152344 22.10539062 8.84304687 21.64453125 9.27734375 C15.57572633 14.77679384 15.57572633 14.77679384 11 15 C10.34644531 15.06058594 9.69289063 15.12117188 9.01953125 15.18359375 C6.875 15.3125 6.875 15.3125 3 15 C0.66398417 12.75890129 0.04575094 11.43676895 -0.29296875 8.203125 C-0.25816406 7.22859375 -0.22335937 6.2540625 -0.1875 5.25 C-0.16042969 4.26515625 -0.13335937 3.2803125 -0.10546875 2.265625 C-0.07066406 1.51796875 -0.03585937 0.7703125 0 0 Z " fill="#6B6B6B" transform="translate(393,93)"/>
<path d="M0 0 C3.01506498 2.84415045 5.33075319 5.76093834 7.609375 9.21875 C8.28226562 10.23453125 8.95515625 11.2503125 9.6484375 12.296875 C10.34195312 13.35390625 11.03546875 14.4109375 11.75 15.5 C12.42804688 16.52609375 13.10609375 17.5521875 13.8046875 18.609375 C16.24319752 22.29959169 18.67898928 25.99159867 21.10961914 29.68701172 C22.20100586 31.34492888 23.29577256 33.00061948 24.390625 34.65625 C25.03547852 35.63400391 25.68033203 36.61175781 26.34472656 37.61914062 C27.92735918 40.04531663 27.92735918 40.04531663 30 42 C28.02 42.495 28.02 42.495 26 43 C19.88145409 33.64438772 13.84923828 24.23786219 7.9375 14.75 C7.37780518 13.85772705 6.81811035 12.9654541 6.24145508 12.04614258 C5.45484497 10.77806763 5.45484497 10.77806763 4.65234375 9.484375 C4.18820068 8.73897461 3.72405762 7.99357422 3.24584961 7.22558594 C1.93286325 4.8800669 0.94477814 2.51387851 0 0 Z " fill="#0660C3" transform="translate(457,88)"/>
<path d="M0 0 C0.33 0 0.66 0 1 0 C-0.08791275 13.70770067 -5.56344667 25.82443949 -15 36 C-15.66 36 -16.32 36 -17 36 C-16.36259662 32.41564075 -14.84945005 30.05272469 -12.8125 27.0625 C-7.31523602 18.61906375 -3.34677084 9.48251739 0 0 Z " fill="#7F7F7F" transform="translate(316,38)"/>
<path d="M0 0 C7.62652719 -0.79076895 13.51681213 0.94028543 20.60546875 3.7109375 C26.72793396 6.03592429 32.52706206 7.31863811 39 8 C39 8.66 39 9.32 39 10 C30.92060969 10.9423047 24.66024404 9.11258431 17.22680664 6.28369141 C12.41466941 4.45766928 7.80343647 3.1477849 2.6875 2.421875 C2.130625 2.28265625 1.57375 2.1434375 1 2 C0.67 1.34 0.34 0.68 0 0 Z " fill="#6A6A6A" transform="translate(33,98)"/>
<path d="M0 0 C0.99 0.66 1.98 1.32 3 2 C2.84144531 2.55042969 2.68289063 3.10085937 2.51953125 3.66796875 C-0.29603963 13.70135671 -2.61988741 23.85662401 -5 34 C-7 32 -7 32 -7.30859375 28.0234375 C-7.18551038 22.58380597 -5.73685371 17.76683679 -4.0625 12.625 C-3.78470703 11.73683594 -3.50691406 10.84867188 -3.22070312 9.93359375 C-2.17788903 6.61166547 -1.10102545 3.30307635 0 0 Z " fill="#868686" transform="translate(285,53)"/>
<path d="M0 0 C2.5162387 1.13636587 2.82920659 2.42197726 3.9375 4.875 C1.89650065 5.6683855 -0.1453309 6.4596303 -2.1875 7.25 C-3.32445312 7.69085938 -4.46140625 8.13171875 -5.6328125 8.5859375 C-15.15220407 12.16384094 -15.15220407 12.16384094 -20.0625 11.875 C-16.12084006 8.45889472 -11.84881283 5.87122607 -7.3671875 3.2421875 C-1.72550079 -0.10457581 -1.72550079 -0.10457581 0 0 Z " fill="#404040" transform="translate(496.0625,124.125)"/>
<path d="M0 0 C0.33 0 0.66 0 1 0 C2.15801528 13.07270581 -2.63188252 22.0029218 -10.81640625 31.91796875 C-12.9878189 33.98838546 -14.06941699 34.66108904 -17 35 C-17 34.34 -17 33.68 -17 33 C-16.34 33 -15.68 33 -15 33 C-14.85111328 32.11634766 -14.85111328 32.11634766 -14.69921875 31.21484375 C-13.86744771 28.58012766 -12.7649678 27.49772747 -10.8125 25.5625 C-4.42219871 18.51340476 -0.37369861 9.52931451 0 0 Z " fill="#797979" transform="translate(271,28)"/>
<path d="M0 0 C1.44166042 4.32498125 -0.50688961 7.21252474 -2.25 11.1875 C-2.88146457 12.65961802 -3.51167874 14.13227305 -4.140625 15.60546875 C-4.45064453 16.32782715 -4.76066406 17.05018555 -5.08007812 17.79443359 C-6.48452108 21.16166759 -7.74331383 24.57514231 -9 28 C-9.66 28 -10.32 28 -11 28 C-10.51646831 21.19650486 -9.04694037 15.71565851 -6.4375 9.4375 C-6.10814453 8.61958984 -5.77878906 7.80167969 -5.43945312 6.95898438 C-4.63631085 4.9685883 -3.81958033 2.98368398 -3 1 C-2.34 1.33 -1.68 1.66 -1 2 C-0.67 1.34 -0.34 0.68 0 0 Z " fill="#818181" transform="translate(248,31)"/>
<path d="M0 0 C-1.71157175 6.2757631 -6.75307563 10.50205042 -12 14 C-16.33070198 15.23734342 -20.53382725 15.07569784 -25 15 C-25.33 14.01 -25.66 13.02 -26 12 C-24.2675 12.1546875 -24.2675 12.1546875 -22.5 12.3125 C-14.60767723 12.28471013 -9.13183366 6.46380475 -3.6640625 1.35546875 C-2 0 -2 0 0 0 Z " fill="#767676" transform="translate(324,95)"/>
<path d="M0 0 C0.33 0 0.66 0 1 0 C2.03246548 11.64391626 2.03246548 11.64391626 -1.6875 16.125 C-4.22750417 18.59910784 -6.57262099 19.98104948 -10 21 C-10.99 21.66 -11.98 22.32 -13 23 C-15.6875 23.125 -15.6875 23.125 -18 23 C-18.33 22.34 -18.66 21.68 -19 21 C-18.19175781 20.63648437 -17.38351562 20.27296875 -16.55078125 19.8984375 C-7.9547995 15.97239161 -7.9547995 15.97239161 -2 9 C-1.08681454 6.02604307 -0.45788664 3.07535803 0 0 Z " fill="#7D7D7D" transform="translate(358,68)"/>
<path d="M0 0 C0.33 1.65 0.66 3.3 1 5 C0.35933594 4.96519531 -0.28132813 4.93039063 -0.94140625 4.89453125 C-6.91616832 4.70754168 -10.65865959 5.38169588 -16 8 C-18.9375 8.6875 -18.9375 8.6875 -21 9 C-21 8.01 -21 7.02 -21 6 C-18.62988762 4.98682219 -16.25500617 3.98944077 -13.875 3 C-12.87726563 2.57074219 -12.87726563 2.57074219 -11.859375 2.1328125 C-7.74107759 0.43704298 -4.53659537 -0.3391847 0 0 Z " fill="#6B6B6B" transform="translate(320,17)"/>
<path d="M0 0 C0.33 0 0.66 0 1 0 C1.10957031 1.09699219 1.21914063 2.19398437 1.33203125 3.32421875 C1.49155666 4.77871516 1.65174813 6.23313863 1.8125 7.6875 C1.88275391 8.40873047 1.95300781 9.12996094 2.02539062 9.87304688 C2.53297929 14.31952359 3.44214522 17.22278432 6 21 C6 21.66 6 22.32 6 23 C9.63 23 13.26 23 17 23 C14 26 14 26 11.51953125 26.07421875 C10.17955078 25.88279297 10.17955078 25.88279297 8.8125 25.6875 C7.91144531 25.56761719 7.01039063 25.44773437 6.08203125 25.32421875 C5.39496094 25.21722656 4.70789063 25.11023438 4 25 C4 24.34 4 23.68 4 23 C3.34 23 2.68 23 2 23 C-1.07257046 15.59291051 -2.5963519 7.78905571 0 0 Z " fill="#818181" transform="translate(293,86)"/>
<path d="M0 0 C13.96494126 -0.68868203 13.96494126 -0.68868203 17.75 1.8125 C21.88874575 5.83628059 21.88874575 5.83628059 22.1953125 9.04296875 C22.13020833 11.02864583 22.06510417 13.01432292 22 15 C21.67 15 21.34 15 21 15 C21 13.35 21 11.7 21 10 C20.01 9.67 19.02 9.34 18 9 C17.33333333 7.33333333 16.66666667 5.66666667 16 4 C12.43954823 2.81318274 9.56191663 2.90310168 5.8125 2.9375 C4.54019531 2.94652344 3.26789063 2.95554688 1.95703125 2.96484375 C0.98121094 2.97644531 0.00539063 2.98804688 -1 3 C-0.67 2.01 -0.34 1.02 0 0 Z " fill="#666666" transform="translate(116,58)"/>
<path d="M0 0 C1.27396229 3.82188686 0.47488806 4.70109238 -1.25 8.25 C-1.95382812 9.72919922 -1.95382812 9.72919922 -2.671875 11.23828125 C-3.11015625 12.14964844 -3.5484375 13.06101562 -4 14 C-5.44909315 17.32083847 -6.86188604 20.63762642 -8.15234375 24.0234375 C-8.57644531 25.10882813 -9.00054688 26.19421875 -9.4375 27.3125 C-9.82808594 28.33988281 -10.21867188 29.36726563 -10.62109375 30.42578125 C-12.12729696 33.23764504 -13.04138715 33.96354327 -16 35 C-14.75301393 31.02013325 -13.2924143 27.38843095 -11.375 23.6875 C-8.69126891 18.4196813 -6.13376269 13.10333081 -3.625 7.75 C-3.08818604 6.60470825 -3.08818604 6.60470825 -2.54052734 5.4362793 C-1.69253099 3.6247259 -0.84609311 1.8124431 0 0 Z " fill="#F9C903" transform="translate(534,45)"/>
<path d="M0 0 C0.33 0.66 0.66 1.32 1 2 C1.66 2 2.32 2 3 2 C2.731875 2.639375 2.46375 3.27875 2.1875 3.9375 C0.15432839 9.18094257 -1.63313026 14.48141161 -3 19.9375 C-4 23 -4 23 -7 25 C-4.29384966 6.95899772 -4.29384966 6.95899772 0 0 Z " fill="#828282" transform="translate(329,75)"/>
<path d="M0 0 C1.0769298 3.2307894 0.94012652 3.87955016 0.0625 7 C-1.25163673 12.35356372 -1.18444112 17.51800002 -1 23 C0.65 23 2.3 23 4 23 C3.01 23.66 2.02 24.32 1 25 C2.65 25.33 4.3 25.66 6 26 C6 26.33 6 26.66 6 27 C3.36 27 0.72 27 -2 27 C-6.29463693 18.67914094 -3.65324262 9.46838058 -1 1 C-0.67 0.67 -0.34 0.34 0 0 Z " fill="#878787" transform="translate(202,82)"/>
<path d="M0 0 C0 0.99 0 1.98 0 3 C-0.79664062 3.30292969 -1.59328125 3.60585937 -2.4140625 3.91796875 C-8.4940054 6.32183912 -13.19930242 8.57830487 -18 13 C-18.66 13 -19.32 13 -20 13 C-20 14.98 -20 16.96 -20 19 C-20.66 18.67 -21.32 18.34 -22 18 C-22.23366554 15.14928038 -22.41664755 12.79431622 -22 10 C-20.125 8.25 -20.125 8.25 -17 7 C-16.22527344 6.67386719 -15.45054688 6.34773438 -14.65234375 6.01171875 C-10.15714594 4.14719477 -5.61612424 2.53870808 -1 1 C-0.67 0.67 -0.34 0.34 0 0 Z " fill="#848484" transform="translate(22,98)"/>
<path d="M0 0 C0.66 0 1.32 0 2 0 C0.99142207 7.06004552 -2.74675286 11.02224249 -7.9375 15.625 C-8.46279297 16.10195312 -8.98808594 16.57890625 -9.52929688 17.0703125 C-12.2550585 19.52656828 -15.01917425 21.85955163 -18 24 C-16.17093539 19.35614735 -12.4630431 16.38913422 -8.90039062 13.06640625 C-6.20037346 10.47065073 -4.57380126 8.72970818 -4 5 C-2.0625 2.25 -2.0625 2.25 0 0 Z " fill="#7E7E7E" transform="translate(232,79)"/>
<path d="M0 0 C1.2375 0.7425 1.2375 0.7425 2.5 1.5 C2.5 2.49 2.5 3.48 2.5 4.5 C1.9534375 4.17515625 1.406875 3.8503125 0.84375 3.515625 C-1.93274209 2.31247843 -3.98274382 2.23342167 -7 2.25 C-8.40765625 2.24226563 -8.40765625 2.24226563 -9.84375 2.234375 C-12.57082149 2.50708215 -14.11532955 3.22682849 -16.5 4.5 C-17.49 4.5 -18.48 4.5 -19.5 4.5 C-18.5 1.5 -18.5 1.5 -15.4375 -0.1875 C-10.02833076 -2.28244465 -5.4173386 -2.32171654 0 0 Z " fill="#6D6D6D" transform="translate(186.5,58.5)"/>
<path d="M0 0 C0.33 1.32 0.66 2.64 1 4 C-1.50497004 5.25248502 -3.20853274 5.11374406 -6.0078125 5.09765625 C-6.99394531 5.09443359 -7.98007812 5.09121094 -8.99609375 5.08789062 C-10.02863281 5.07951172 -11.06117188 5.07113281 -12.125 5.0625 C-13.68541016 5.05573242 -13.68541016 5.05573242 -15.27734375 5.04882812 C-17.85161962 5.03701952 -20.42578146 5.02055075 -23 5 C-22.34 4.01 -21.68 3.02 -21 2 C-18.46334088 1.83069137 -16.14819762 1.81086224 -13.625 1.9375 C-8.6126211 2.16315307 -4.49411607 0 0 0 Z " fill="#595856" transform="translate(575,111)"/>
<path d="M0 0 C0.391875 0.53625 0.78375 1.0725 1.1875 1.625 C6.28857478 9.04224558 6.28857478 9.04224558 13.9375 12.5625 C14.97197266 12.65724609 14.97197266 12.65724609 16.02734375 12.75390625 C18 13 18 13 21 14 C17.28024805 15.85987597 13.0596337 15.43094573 9 15 C3.91873785 12.74166127 1.9234287 9.71806414 -0.43359375 4.90234375 C-1 3 -1 3 0 0 Z " fill="#797979" transform="translate(107,96)"/>
<path d="M0 0 C0.66 0 1.32 0 2 0 C-0.19965675 4.94922768 -2.58262938 8.25265913 -7.4375 10.8125 C-10.60732903 11.86910968 -12.7134851 12.29877408 -16 12 C-16 11.34 -16 10.68 -16 10 C-15.18015625 9.61328125 -14.3603125 9.2265625 -13.515625 8.828125 C-12.43796875 8.30734375 -11.3603125 7.7865625 -10.25 7.25 C-9.18265625 6.73953125 -8.1153125 6.2290625 -7.015625 5.703125 C-4.1264745 4.0714286 -2.28239614 2.36464465 0 0 Z " fill="#727272" transform="translate(122,79)"/>
<path d="M0 0 C-0.33 0.99 -0.66 1.98 -1 3 C-1.78246094 3.13277344 -2.56492187 3.26554687 -3.37109375 3.40234375 C-4.38300781 3.57894531 -5.39492188 3.75554688 -6.4375 3.9375 C-7.44683594 4.11152344 -8.45617187 4.28554688 -9.49609375 4.46484375 C-11.9287438 4.74751097 -11.9287438 4.74751097 -13 6 C-14.99958364 6.04080783 -17.00045254 6.04254356 -19 6 C-19 5.01 -19 4.02 -19 3 C-6.51480638 -0.44419134 -6.51480638 -0.44419134 0 0 Z " fill="#6B6B6B" transform="translate(412,34)"/>
<path d="M0 0 C0.66 0.66 1.32 1.32 2 2 C1.35933594 1.96519531 0.71867187 1.93039063 0.05859375 1.89453125 C-5.7742142 1.71198435 -9.73586136 2.22436326 -15 5 C-15.74378906 5.38671875 -16.48757812 5.7734375 -17.25390625 6.171875 C-21.50836617 8.44278935 -25.34594499 10.81743596 -29 14 C-27.70989008 11.12206249 -26.42638194 9.03816083 -24 7 C-23.01 6.67 -22.02 6.34 -21 6 C-19.78130071 3.49552484 -19.78130071 3.49552484 -19 1 C-18.67 1.66 -18.34 2.32 -18 3 C-17.071875 2.505 -16.14375 2.01 -15.1875 1.5 C-10.34067394 -0.59565635 -5.19419211 -0.66327163 0 0 Z " fill="#7E7E7E" transform="translate(185,60)"/>
<path d="M0 0 C3.96 0 7.92 0 12 0 C11.01 1.485 11.01 1.485 10 3 C9.34 3 8.68 3 8 3 C8 3.99 8 4.98 8 6 C5.36 6.66 2.72 7.32 0 8 C0 5.36 0 2.72 0 0 Z " fill="#7A7A7A" transform="translate(58,53)"/>
<path d="M0 0 C0.66 0 1.32 0 2 0 C0.67214726 4.64748457 -1.85355713 7.59450154 -6 10 C-9.875 10.8125 -9.875 10.8125 -13 11 C-13 10.01 -13 9.02 -13 8 C-12.31292969 7.67386719 -11.62585938 7.34773438 -10.91796875 7.01171875 C-10.01691406 6.57472656 -9.11585937 6.13773437 -8.1875 5.6875 C-7.29417969 5.25824219 -6.40085937 4.82898438 -5.48046875 4.38671875 C-3.19714024 3.11021226 -1.80235146 1.8456512 0 0 Z " fill="#717171" transform="translate(88,96)"/>
<path d="M0 0 C0 1.32 0 2.64 0 4 C-0.928125 4.144375 -1.85625 4.28875 -2.8125 4.4375 C-8.86473742 6.09377073 -13.39408467 10.95212504 -18 15 C-18.66 14.67 -19.32 14.34 -20 14 C-18.29639246 12.411583 -16.58688171 10.82949619 -14.875 9.25 C-13.44800781 7.92742187 -13.44800781 7.92742187 -11.9921875 6.578125 C-4.35757576 0 -4.35757576 0 0 0 Z " fill="#4F4F4E" transform="translate(599,93)"/>
<path d="M0 0 C0.99 0.66 1.98 1.32 3 2 C1.88200014 3.33920838 0.75538103 4.67122556 -0.375 6 C-1.31472656 7.11375 -1.31472656 7.11375 -2.2734375 8.25 C-2.84320313 8.8275 -3.41296875 9.405 -4 10 C-4.66 10 -5.32 10 -6 10 C-6 10.66 -6 11.32 -6 12 C-6.66 12 -7.32 12 -8 12 C-8 12.66 -8 13.32 -8 14 C-8.66 14 -9.32 14 -10 14 C-9.41103058 10.40163887 -8.00101444 8.54164989 -5.5625 5.875 C-4.94503906 5.19179687 -4.32757813 4.50859375 -3.69140625 3.8046875 C-2.48303513 2.51538621 -1.24949161 1.24949161 0 0 Z " fill="#717171" transform="translate(340,63)"/>
<path d="M0 0 C0.928125 0.639375 1.85625 1.27875 2.8125 1.9375 C7.59218004 4.72072932 12.57734837 4.8038824 18 5 C16 8 16 8 14.08203125 8.50390625 C8.30329549 8.65309908 5.42688656 7.46197514 1.21484375 3.5078125 C0 2 0 2 0 0 Z " fill="#6D6D6D" transform="translate(343,102)"/>
<path d="M0 0 C0.83984375 1.640625 0.83984375 1.640625 1 4 C-0.75836408 6.1302685 -2.42424794 7.8949842 -4.4375 9.75 C-4.96666016 10.25660156 -5.49582031 10.76320313 -6.04101562 11.28515625 C-7.34977101 12.53495869 -8.67351959 13.76902618 -10 15 C-10.66 14.67 -11.32 14.34 -12 14 C-9.82758925 9.99819073 -7.29197895 7.13139461 -4 4 C-3.236875 3.236875 -2.47375 2.47375 -1.6875 1.6875 C-1.130625 1.130625 -0.57375 0.57375 0 0 Z " fill="#6F6F6F" transform="translate(143,94)"/>
<path d="M0 0 C2.31 0 4.62 0 7 0 C7.33 0.99 7.66 1.98 8 3 C7.195625 3.226875 6.39125 3.45375 5.5625 3.6875 C4.716875 4.120625 3.87125 4.55375 3 5 C2.10613836 7.54775306 2.10613836 7.54775306 2 10 C1.01 10.33 0.02 10.66 -1 11 C-0.67 7.37 -0.34 3.74 0 0 Z " fill="#828282" transform="translate(379,60)"/>
<path d="M0 0 C0 3 0 3 -1.875 5.125 C-4.72142624 7.63655257 -6.28921852 8.15339355 -10 8.1875 C-11.051875 8.20876953 -11.051875 8.20876953 -12.125 8.23046875 C-14 8 -14 8 -16 6 C-15.625 3.875 -15.625 3.875 -15 2 C-14.46375 2.515625 -13.9275 3.03125 -13.375 3.5625 C-11.04365427 5.26340723 -11.04365427 5.26340723 -8.0625 4.9375 C-4.62827077 3.88620534 -2.63605036 2.40345768 0 0 Z " fill="#6E6E6E" transform="translate(177,100)"/>
<path d="M0 0 C0.99 0.66 1.98 1.32 3 2 C2.57739475 4.12801223 2.13642627 6.25238452 1.6875 8.375 C1.44386719 9.55835937 1.20023437 10.74171875 0.94921875 11.9609375 C0 15 0 15 -3 17 C-2.54775239 11.08507728 -1.8417395 5.64800112 0 0 Z " fill="#878787" transform="translate(92,83)"/>
<path d="M0 0 C3.84169158 -0.21952523 6.54670274 0.27335137 10 2 C11.2238892 4.44777839 11.016364 5.73390541 10.75 8.4375 C10.68296875 9.21996094 10.6159375 10.00242187 10.546875 10.80859375 C10 13 10 13 7 16 C7.33 12.04 7.66 8.08 8 4 C6.68 3.34 5.36 2.68 4 2 C2.66666667 1.33333333 1.33333333 0.66666667 0 0 Z " fill="#888888" transform="translate(361,62)"/>
<path d="M0 0 C-0.2265625 1.890625 -0.2265625 1.890625 -1 4 C-2.9609375 5.046875 -2.9609375 5.046875 -5.375 5.75 C-6.16648438 5.99234375 -6.95796875 6.2346875 -7.7734375 6.484375 C-10 7 -10 7 -13 7 C-11.78081617 3.3424485 -10.15928702 2.57671131 -6.85546875 0.78515625 C-4.48526307 -0.217815 -2.54101354 -0.30800164 0 0 Z " fill="#767676" transform="translate(211,57)"/>
<path d="M0 0 C3 0 3 0 6 1 C5.52949219 1.31453125 5.05898438 1.6290625 4.57421875 1.953125 C1.06267139 4.36685942 -1.52540819 6.48347479 -4 10 C-4.66 10 -5.32 10 -6 10 C-6 10.66 -6 11.32 -6 12 C-6.99 11.67 -7.98 11.34 -9 11 C-7.87672229 9.54033966 -6.75131706 8.08231636 -5.625 6.625 C-4.99851562 5.81289063 -4.37203125 5.00078125 -3.7265625 4.1640625 C-2 2 -2 2 0 0 Z " fill="#767676" transform="translate(45,25)"/>
<path d="M0 0 C0.33 0.66 0.66 1.32 1 2 C-1 5 -1 5 -3.375 6.375 C-6.15518217 7.88826221 -6.15518217 7.88826221 -8.0625 10.625 C-10.08638908 13.10589629 -10.89157277 13.66695423 -14 14 C-11.93134648 10.19527391 -9.71034023 7.57531842 -6.4375 4.75 C-5.65246094 4.06421875 -4.86742187 3.3784375 -4.05859375 2.671875 C-2 1 -2 1 0 0 Z " fill="#6E6E6E" transform="translate(165,62)"/>
<path d="M0 0 C0 0.66 0 1.32 0 2 C-0.90363281 2.33773437 -1.80726562 2.67546875 -2.73828125 3.0234375 C-3.91777344 3.46945313 -5.09726563 3.91546875 -6.3125 4.375 C-7.48425781 4.81585938 -8.65601563 5.25671875 -9.86328125 5.7109375 C-13.08553593 6.91489648 -13.08553593 6.91489648 -16 9 C-14.49364535 4.78220697 -11.75987578 3.2252326 -8 1 C-5.07175348 0.02391783 -3.04386724 -0.08226668 0 0 Z " fill="#696969" transform="translate(18,99)"/>
<path d="M0 0 C0.33 0 0.66 0 1 0 C2.87744205 7.27508794 2.06755357 14.6605692 1 22 C-1 20 -1 20 -1.23046875 17.96875 C-1.12543512 11.93409052 -0.71415809 5.99382687 0 0 Z " fill="#818181" transform="translate(27,66)"/>
<path d="M0 0 C-1.38335921 1.18143096 -2.78228426 2.34465134 -4.1875 3.5 C-4.96480469 4.1496875 -5.74210937 4.799375 -6.54296875 5.46875 C-9.31331341 7.1952605 -10.79907334 7.31838702 -14 7 C-14.33 6.34 -14.66 5.68 -15 5 C-13.06891037 3.96709159 -11.129882 2.94901328 -9.1875 1.9375 C-8.10855469 1.36902344 -7.02960938 0.80054687 -5.91796875 0.21484375 C-3 -1 -3 -1 0 0 Z " fill="#6F6F6F" transform="translate(354,84)"/>
<path d="M0 0 C0.66 0.33 1.32 0.66 2 1 C1.01 6.28 0.02 11.56 -1 17 C-2.93491757 13.13016485 -3.26319751 12.44351773 -2.75 8.5 C-2.66234375 7.7471875 -2.5746875 6.994375 -2.484375 6.21875 C-1.97595134 3.8898416 -1.15218067 2.07770284 0 0 Z " fill="#848484" transform="translate(381,77)"/>
<path d="M0 0 C3.63534004 1.21178001 4.07521045 2.26088627 6.0625 5.4375 C7.61468524 7.89808881 8.93883462 9.93883462 11 12 C9.68 12.33 8.36 12.66 7 13 C5.82786955 11.21190303 4.66244474 9.41940875 3.5 7.625 C2.8503125 6.62726563 2.200625 5.62953125 1.53125 4.6015625 C0 2 0 2 0 0 Z " fill="#075AB3" transform="translate(476,118)"/>
<path d="M0 0 C0.66 0 1.32 0 2 0 C1.71800273 2.4389764 1.42484385 4.87570933 1.125 7.3125 C1.04636719 8.00279297 0.96773437 8.69308594 0.88671875 9.40429688 C0.44056153 12.95639471 0.02019807 14.9697029 -2 18 C-3.04894965 13.37350684 -2.82806355 10.18102877 -1.5625 5.625 C-1.27503906 4.56539063 -0.98757812 3.50578125 -0.69140625 2.4140625 C-0.46324219 1.61742187 -0.23507813 0.82078125 0 0 Z " fill="#7E7E7E" transform="translate(236,60)"/>
<path d="M0 0 C0.70703125 1.671875 0.70703125 1.671875 1 4 C-0.36328125 6.578125 -0.36328125 6.578125 -2.3125 9.25 C-2.94800781 10.14203125 -3.58351563 11.0340625 -4.23828125 11.953125 C-5.11033203 12.96632813 -5.11033203 12.96632813 -6 14 C-6.66 14 -7.32 14 -8 14 C-7.37606349 10.23880524 -5.65226285 7.81039958 -3.4375 4.75 C-2.79683594 3.85796875 -2.15617187 2.9659375 -1.49609375 2.046875 C-0.75552734 1.03367188 -0.75552734 1.03367188 0 0 Z " fill="#797979" transform="translate(307,60)"/>
<path d="M0 0 C2 2 2 2 2.3125 5.1875 C1.94994344 9.61069008 1.06605982 12.09744256 -1 16 C-1.99 16.66 -2.98 17.32 -4 18 C-2.5 15 -2.5 15 -1 12 C-1.66 11.67 -2.32 11.34 -3 11 C-2.690625 10.484375 -2.38125 9.96875 -2.0625 9.4375 C-0.70940713 6.33334577 -0.38640576 3.34884993 0 0 Z " fill="#848484" transform="translate(125,67)"/>
<path d="M0 0 C5.55010225 1.44785276 5.55010225 1.44785276 7.375 3.6875 C8.22470496 6.83140837 8.12455824 9.76148579 8 13 C7.34 13 6.68 13 6 13 C5.90203125 12.37351562 5.8040625 11.74703125 5.703125 11.1015625 C5.55359375 10.28429688 5.4040625 9.46703125 5.25 8.625 C5.11078125 7.81289063 4.9715625 7.00078125 4.828125 6.1640625 C4.18250739 3.82290908 4.18250739 3.82290908 1.921875 2.7109375 C1.28765625 2.47632813 0.6534375 2.24171875 0 2 C0 1.34 0 0.68 0 0 Z " fill="#7C7C7C" transform="translate(80,24)"/>
<path d="M0 0 C0.66 0.66 1.32 1.32 2 2 C1.9765625 4.8203125 1.9765625 4.8203125 1.625 8.125 C1.51414063 9.22070312 1.40328125 10.31640625 1.2890625 11.4453125 C1.19367188 12.28835937 1.09828125 13.13140625 1 14 C0.01 14.33 -0.98 14.66 -2 15 C-1.85879286 13.06215735 -1.71187127 11.12473045 -1.5625 9.1875 C-1.48128906 8.10855469 -1.40007812 7.02960938 -1.31640625 5.91796875 C-1 3 -1 3 0 0 Z " fill="#8D8D8D" transform="translate(221,139)"/>
<path d="M0 0 C0.99 0.33 1.98 0.66 3 1 C-2.19233958 4.57694505 -5.38782655 6.13661381 -11.6875 6.0625 C-12.68136719 6.05347656 -13.67523438 6.04445313 -14.69921875 6.03515625 C-15.83810547 6.01775391 -15.83810547 6.01775391 -17 6 C-17.33 5.34 -17.66 4.68 -18 4 C-14.37 4 -10.74 4 -7 4 C-6.67 3.01 -6.34 2.02 -6 1 C-5.38125 1.20625 -4.7625 1.4125 -4.125 1.625 C-3.073125 1.810625 -3.073125 1.810625 -2 2 C-1.34 1.34 -0.68 0.68 0 0 Z " fill="#7C7C7C" transform="translate(366,105)"/>
<path d="M0 0 C2.97 0 5.94 0 9 0 C8.67 1.65 8.34 3.3 8 5 C5.36 4.34 2.72 3.68 0 3 C0 2.01 0 1.02 0 0 Z " fill="#707070" transform="translate(405,58)"/>
<path d="M0 0 C0.33 0.66 0.66 1.32 1 2 C0.00390625 4.1640625 0.00390625 4.1640625 -1.4375 6.625 C-1.91058594 7.44226563 -2.38367188 8.25953125 -2.87109375 9.1015625 C-3.24363281 9.72804688 -3.61617188 10.35453125 -4 11 C-4.66 10.67 -5.32 10.34 -6 10 C-5.44739574 6.68437443 -4.83174295 3.84937793 -3 1 C-2.01 0.67 -1.02 0.34 0 0 Z " fill="#7B7B7B" transform="translate(99,74)"/>
<path d="M0 0 C0.495 0.33 0.99 0.66 1.5 1 C-2.01101066 2.17033689 -4.80006038 2 -8.5 2 C-11.1810319 2.26247865 -13.83123817 2.62543694 -16.5 3 C-16.5 2.34 -16.5 1.68 -16.5 1 C-11.03314877 -1.18674049 -5.63485218 -2.25394087 0 0 Z " fill="#818181" transform="translate(131.5,61)"/>
<path d="M0 0 C0.33 0 0.66 0 1 0 C1.35368021 7.12600133 0.95671348 12.47059106 -2 19 C-2.99 18.34 -3.98 17.68 -5 17 C-4.72285156 16.443125 -4.44570313 15.88625 -4.16015625 15.3125 C-1.68683764 10.10180741 -0.41838796 5.75283447 0 0 Z " fill="#808080" transform="translate(271,28)"/>
<path d="M0 0 C2.78490859 3.91950098 1.81114407 7.78612016 1.125 12.25 C1.02058594 12.99507812 0.91617188 13.74015625 0.80859375 14.5078125 C0.55018787 16.34014511 0.27657918 18.17032234 0 20 C-0.33 20 -0.66 20 -1 20 C-1.02696009 17.2291017 -1.04681952 14.4584655 -1.0625 11.6875 C-1.07087891 10.90181641 -1.07925781 10.11613281 -1.08789062 9.30664062 C-1.09111328 8.54931641 -1.09433594 7.79199219 -1.09765625 7.01171875 C-1.10289307 6.31522217 -1.10812988 5.61872559 -1.11352539 4.90112305 C-1 3 -1 3 0 0 Z " fill="#838383" transform="translate(224,120)"/>
<path d="M0 0 C0.55171875 0.16371094 1.1034375 0.32742187 1.671875 0.49609375 C4.26614007 1.05760414 6.59835411 1.09739008 9.25 1.0625 C10.58804687 1.04896484 10.58804687 1.04896484 11.953125 1.03515625 C12.62859375 1.02355469 13.3040625 1.01195313 14 1 C13.67 1.99 13.34 2.98 13 4 C9.37 4 5.74 4 2 4 C1.34 2.68 0.68 1.36 0 0 Z " fill="#676767" transform="translate(248,106)"/>
<path d="M0 0 C0.33 0 0.66 0 1 0 C1.66 3.3 2.32 6.6 3 10 C5.31 10.66 7.62 11.32 10 12 C10 12.33 10 12.66 10 13 C8.35 13 6.7 13 5 13 C5 13.66 5 14.32 5 15 C1.125 13.25 1.125 13.25 0 11 C-0.07033769 9.12620395 -0.0843022 7.24998898 -0.0625 5.375 C-0.05347656 4.37210937 -0.04445313 3.36921875 -0.03515625 2.3359375 C-0.02355469 1.56507812 -0.01195312 0.79421875 0 0 Z " fill="#808080" transform="translate(393,93)"/>
<path d="M0 0 C0.33 0.66 0.66 1.32 1 2 C1.99 2.33 2.98 2.66 4 3 C-0.00003553 6.0968017 -3.14740404 6.32530721 -8.01171875 6.30078125 C-10 6 -10 6 -12 4 C-6.555 3.505 -6.555 3.505 -1 3 C-0.67 2.01 -0.34 1.02 0 0 Z " fill="#7D7D7D" transform="translate(262,106)"/>
<path d="M0 0 C3.40898356 2.27265571 3.67054073 3.27751404 5 7 C6.19069301 9.53022264 7.43682141 11.65523212 9 14 C6.13998967 12.71792641 3.92960588 11.50848764 2 9 C2 7.68 2 6.36 2 5 C1.34 5 0.68 5 0 5 C0 3.35 0 1.7 0 0 Z " fill="#808080" transform="translate(339,95)"/>
<path d="M0 0 C0.33 0 0.66 0 1 0 C1.26863974 5.77575443 0.1894996 9.2157506 -3 14 C-4.07511878 9.60993163 -4.3257941 6.95377757 -2.0625 3.0625 C-1.381875 2.051875 -0.70125 1.04125 0 0 Z " fill="#7D7D7D" transform="translate(35,38)"/>
<path d="M0 0 C0.99 0.33 1.98 0.66 3 1 C2.030625 1.61875 1.06125 2.2375 0.0625 2.875 C-3.02835362 4.65678846 -3.02835362 4.65678846 -4 7 C-6.64860427 7.59355614 -9.29197322 7.74209269 -12 8 C-8.19752197 4.773655 -4.44929561 2.22464781 0 0 Z " fill="#333641" transform="translate(488,128)"/>
<path d="M0 0 C0.66 0.33 1.32 0.66 2 1 C1.01 2.485 1.01 2.485 0 4 C-0.66 4 -1.32 4 -2 4 C-2.33 6.64 -2.66 9.28 -3 12 C-3.66 11.67 -4.32 11.34 -5 11 C-5.43666974 5.67262923 -5.43666974 5.67262923 -5 3 C-2.625 0.9375 -2.625 0.9375 0 0 Z " fill="#7D7D7D" transform="translate(5,105)"/>
<path d="M0 0 C0.33 0 0.66 0 1 0 C1 2.64 1 5.28 1 8 C0.01 8.495 0.01 8.495 -1 9 C-1 8.34 -1 7.68 -1 7 C-3.31 8.98 -5.62 10.96 -8 13 C-8.66 12.67 -9.32 12.34 -10 12 C-8.90536178 10.82438854 -7.79892814 9.6597511 -6.6875 8.5 C-6.07261719 7.8503125 -5.45773437 7.200625 -4.82421875 6.53125 C-3 5 -3 5 0 5 C0 3.35 0 1.7 0 0 Z " fill="#7B7B7B" transform="translate(417,94)"/>
<path d="M0 0 C1.15957207 3.47871621 0.77456651 4.34219645 -0.4375 7.6875 C-0.86869141 8.89986328 -0.86869141 8.89986328 -1.30859375 10.13671875 C-1.53675781 10.75160156 -1.76492187 11.36648437 -2 12 C-4.30903272 8.01647791 -3.86516528 5.49885947 -3 1 C-2.34 1.33 -1.68 1.66 -1 2 C-0.67 1.34 -0.34 0.68 0 0 Z " fill="#8A8A8A" transform="translate(147,86)"/>
<path d="M0 0 C1.32 0.66 2.64 1.32 4 2 C3.01 2.33 2.02 2.66 1 3 C0.67 4.98 0.34 6.96 0 9 C-0.66 9 -1.32 9 -2 9 C-2.33 9.66 -2.66 10.32 -3 11 C-2.53199289 6.94393835 -2.12046792 3.53411321 0 0 Z " fill="#797979" transform="translate(297,25)"/>
<path d="M0 0 C0.33 1.32 0.66 2.64 1 4 C-1.95664519 5.4783226 -4.74229737 5.06032783 -8 5 C-7.34 4.67 -6.68 4.34 -6 4 C-6 3.34 -6 2.68 -6 2 C-2.25 0 -2.25 0 0 0 Z " fill="#525251" transform="translate(575,111)"/>
<path d="M0 0 C3.96 0.33 7.92 0.66 12 1 C12 1.66 12 2.32 12 3 C8.37 3 4.74 3 1 3 C0.67 2.01 0.34 1.02 0 0 Z " fill="#656565" transform="translate(60,105)"/>
<path d="M0 0 C3.63 0 7.26 0 11 0 C10.67 0.66 10.34 1.32 10 2 C7.49609375 2.4140625 7.49609375 2.4140625 4.4375 2.625 C3.42558594 2.69976563 2.41367187 2.77453125 1.37109375 2.8515625 C0.58863281 2.90054687 -0.19382813 2.94953125 -1 3 C-0.67 2.01 -0.34 1.02 0 0 Z " fill="#666666" transform="translate(59,17)"/>
<path d="M0 0 C0.66 0.66 1.32 1.32 2 2 C1.9765625 4.1640625 1.9765625 4.1640625 1.625 6.625 C1.51414063 7.44226563 1.40328125 8.25953125 1.2890625 9.1015625 C1.19367188 9.72804688 1.09828125 10.35453125 1 11 C0.34 11 -0.32 11 -1 11 C-1.125 3.375 -1.125 3.375 0 0 Z " fill="#868686" transform="translate(227,102)"/>
<path d="M0 0 C1.5 1 1.5 1 3 3 C3.27345479 5.71846235 3.13491285 8.25677199 3 11 C2.67 11 2.34 11 2 11 C2 9.35 2 7.7 2 6 C1.01 5.67 0.02 5.34 -1 5 C-1.6875 2.9375 -1.6875 2.9375 -2 1 C-1.34 0.67 -0.68 0.34 0 0 Z " fill="#787878" transform="translate(135,62)"/>
<path d="M0 0 C-2.62451617 2.62451617 -4.4877828 2.5832868 -8.125 3.125 C-9.22070312 3.29257812 -10.31640625 3.46015625 -11.4453125 3.6328125 C-12.70988281 3.81457031 -12.70988281 3.81457031 -14 4 C-13.67 3.01 -13.34 2.02 -13 1 C-8.59085217 -0.10228696 -4.51617599 -0.07654536 0 0 Z " fill="#878787" transform="translate(71,20)"/>
<path d="M0 0 C3.125 -0.1875 3.125 -0.1875 6 0 C6.66 1.32 7.32 2.64 8 4 C4.7 3.67 1.4 3.34 -2 3 C-1.34 2.01 -0.68 1.02 0 0 Z " fill="#676767" transform="translate(266,17)"/>
<path d="M0 0 C0.66 0.33 1.32 0.66 2 1 C-1.3 4.3 -4.6 7.6 -8 11 C-8.33 10.01 -8.66 9.02 -9 8 C-6.03 5.36 -3.06 2.72 0 0 Z " fill="#888888" transform="translate(109,65)"/>
<path d="M0 0 C0.99 0.33 1.98 0.66 3 1 C2.67 3.31 2.34 5.62 2 8 C1.01 8.33 0.02 8.66 -1 9 C-0.67 6.03 -0.34 3.06 0 0 Z " fill="#858585" transform="translate(238,50)"/>
<path d="M0 0 C0.33 0 0.66 0 1 0 C1.22151549 1.79008467 1.42682213 3.58218162 1.625 5.375 C1.74101562 6.37273437 1.85703125 7.37046875 1.9765625 8.3984375 C1.98429688 9.25695312 1.99203125 10.11546875 2 11 C1.34 11.66 0.68 12.32 0 13 C-1.29721449 9.10835652 -1.13033993 6.10570774 -1 2 C-0.67 1.34 -0.34 0.68 0 0 Z " fill="#848484" transform="translate(160,91)"/>
<path d="M0 0 C0.66 0.33 1.32 0.66 2 1 C-0.97 5.95 -0.97 5.95 -4 11 C-4.33 10.01 -4.66 9.02 -5 8 C-3.5625 5.3125 -3.5625 5.3125 -2 3 C-2.66 2.67 -3.32 2.34 -4 2 C-2.125 0.9375 -2.125 0.9375 0 0 Z " fill="#818181" transform="translate(153,75)"/>
<path d="M0 0 C0.99 0.66 1.98 1.32 3 2 C1.35 4.97 -0.3 7.94 -2 11 C-2.33 11 -2.66 11 -3 11 C-2.53199289 6.94393835 -2.12046792 3.53411321 0 0 Z " fill="#787878" transform="translate(249,24)"/>
<path d="M0 0 C3.3 0 6.6 0 10 0 C9.67 0.99 9.34 1.98 9 3 C6.36 3 3.72 3 1 3 C0.67 2.01 0.34 1.02 0 0 Z " fill="#666666" transform="translate(298,107)"/>
<path d="M0 0 C0 3 0 3 -1.3125 4.60546875 C-1.869375 5.12753906 -2.42625 5.64960937 -3 6.1875 C-3.556875 6.71730469 -4.11375 7.24710937 -4.6875 7.79296875 C-5.120625 8.19128906 -5.55375 8.58960937 -6 9 C-6.99 8.67 -7.98 8.34 -9 8 C-6.03 5.36 -3.06 2.72 0 0 Z " fill="#696969" transform="translate(320,97)"/>
<path d="M0 0 C2.26609984 4.53219967 1.92735976 6.17772925 1 11 C0.01 10.34 -0.98 9.68 -2 9 C-1.34 6.03 -0.68 3.06 0 0 Z " fill="#878787" transform="translate(277,86)"/>
<path d="M0 0 C2.31 0 4.62 0 7 0 C7.33 0.99 7.66 1.98 8 3 C5.69 3.33 3.38 3.66 1 4 C0.67 2.68 0.34 1.36 0 0 Z " fill="#717171" transform="translate(379,60)"/>
<path d="M0 0 C0.75 1.625 0.75 1.625 1 4 C-2.17808219 9.5890411 -2.17808219 9.5890411 -5 11 C-3.77472971 6.94718288 -2.30119506 3.55639236 0 0 Z " fill="#797979" transform="translate(180,95)"/>
<path d="M0 0 C2.79872437 2.52788007 4.45773019 4.20411134 5 8 C3.68 7.67 2.36 7.34 1 7 C0.67 4.69 0.34 2.38 0 0 Z " fill="#7E7E7E" transform="translate(245,102)"/>
<path d="M0 0 C1.32 0.66 2.64 1.32 4 2 C2.02 3.98 0.04 5.96 -2 8 C-2.66 7.67 -3.32 7.34 -4 7 C-3.525625 6.21625 -3.05125 5.4325 -2.5625 4.625 C-1.66101977 3.11051322 -0.78820515 1.5764103 0 0 Z " fill="#7E7E7E" transform="translate(135,101)"/>
<path d="M0 0 C0 0.66 0 1.32 0 2 C-3.13498292 3.85776765 -5.37471432 4.20140476 -9 4 C-4.5 0 -4.5 0 0 0 Z " fill="#878787" transform="translate(118,88)"/>
<path d="M0 0 C0.33 1.32 0.66 2.64 1 4 C-0.1446875 4.680625 -0.1446875 4.680625 -1.3125 5.375 C-3.23632814 6.53824492 -5.12941224 7.7529415 -7 9 C-5.44499019 5.18315774 -2.96404505 2.80804268 0 0 Z " fill="#646464" transform="translate(416,95)"/>
<path d="M0 0 C0.99 0.66 1.98 1.32 3 2 C-1.625 5 -1.625 5 -5 5 C-4 2 -4 2 -1.9375 0.8125 C-1.298125 0.544375 -0.65875 0.27625 0 0 Z " fill="#6C6C6C" transform="translate(203,59)"/>
<path d="M0 0 C2 2 2 2 2.125 5.125 C2.08375 6.07375 2.0425 7.0225 2 8 C1.01 8 0.02 8 -1 8 C-0.67 5.36 -0.34 2.72 0 0 Z " fill="#868686" transform="translate(221,139)"/>
<path d="M0 0 C0.33 0.66 0.66 1.32 1 2 C1.66 2 2.32 2 3 2 C2 5 2 5 -0.0625 6.1875 C-0.701875 6.455625 -1.34125 6.72375 -2 7 C-1.125 2.25 -1.125 2.25 0 0 Z " fill="#7D7D7D" transform="translate(329,75)"/>
<path d="M0 0 C0.625 1.8125 0.625 1.8125 1 4 C0.01 5.485 0.01 5.485 -1 7 C-1.99 6.67 -2.98 6.34 -4 6 C-2.68 4.02 -1.36 2.04 0 0 Z " fill="#737373" transform="translate(307,60)"/>
<path d="M0 0 C-3.06117568 2.62386487 -3.73173127 3 -8 3 C-8 2.34 -8 1.68 -8 1 C-3.375 -1.125 -3.375 -1.125 0 0 Z " fill="#6A6A6A" transform="translate(70,54)"/>
<path d="M0 0 C-0.66 1.32 -1.32 2.64 -2 4 C-3.32 4 -4.64 4 -6 4 C-5.67 3.01 -5.34 2.02 -5 1 C-3 0 -3 0 0 0 Z " fill="#686868" transform="translate(256,21)"/>
<path d="M0 0 C0.66 0.33 1.32 0.66 2 1 C1.67 2.32 1.34 3.64 1 5 C-1.97 4.505 -1.97 4.505 -5 4 C-4.67 3.34 -4.34 2.68 -4 2 C-2.68 2 -1.36 2 0 2 C0 1.34 0 0.68 0 0 Z " fill="#767676" transform="translate(319,17)"/>
</svg>
